<mxfile host="app.diagrams.net" agent="Mozilla/5.0 (Windows NT 10.0; Win64; x64) AppleWebKit/537.36 (KHTML, like Gecko) Chrome/131.0.0.0 Safari/537.36" version="24.8.8" pages="2">
  <diagram id="kmoHN9F4iCi2Yi1RMuq6" name="Page-2">
    <mxGraphModel dx="3069" dy="1486" grid="1" gridSize="10" guides="1" tooltips="1" connect="1" arrows="1" fold="1" page="1" pageScale="1" pageWidth="291" pageHeight="413" math="0" shadow="0">
      <root>
        <mxCell id="0" />
        <mxCell id="1" parent="0" />
        <mxCell id="0-PR4jEMZpkDc8mjO-xp-108" value="" style="rounded=0;whiteSpace=wrap;html=1;fillColor=none;movable=1;resizable=1;rotatable=1;deletable=1;editable=1;locked=0;connectable=1;" parent="1" vertex="1">
          <mxGeometry x="542.03" y="80" width="1595.25" height="1770" as="geometry" />
        </mxCell>
        <mxCell id="0-PR4jEMZpkDc8mjO-xp-1" value="&lt;span style=&quot;color: rgb(61, 71, 82); font-size: 20px; text-wrap: wrap;&quot;&gt;Instructor&lt;/span&gt;" style="shape=umlActor;verticalLabelPosition=bottom;verticalAlign=top;html=1;outlineConnect=0;fontSize=20;fontStyle=1" parent="1" vertex="1">
          <mxGeometry x="2170" y="679.0497637795277" width="61.355932203389834" height="137.00787401574803" as="geometry" />
        </mxCell>
        <mxCell id="0-PR4jEMZpkDc8mjO-xp-3" value="&lt;span style=&quot;color: rgb(61, 71, 82); text-wrap-mode: wrap;&quot;&gt;Student&lt;/span&gt;" style="shape=umlActor;verticalLabelPosition=bottom;verticalAlign=top;html=1;outlineConnect=0;fontSize=20;fontStyle=1" parent="1" vertex="1">
          <mxGeometry x="451.02259887005647" y="665.7086614173228" width="61.355932203389834" height="137.00787401574803" as="geometry" />
        </mxCell>
        <mxCell id="0-PR4jEMZpkDc8mjO-xp-6" value="" style="endArrow=none;html=1;rounded=0;exitX=0.5;exitY=0.5;exitDx=0;exitDy=0;exitPerimeter=0;entryX=0.032;entryY=0.267;entryDx=0;entryDy=0;entryPerimeter=0;" parent="1" source="0-PR4jEMZpkDc8mjO-xp-3" target="0-PR4jEMZpkDc8mjO-xp-7" edge="1">
          <mxGeometry width="50" height="50" relative="1" as="geometry">
            <mxPoint x="1063.5593220338983" y="685.1181102362204" as="sourcePoint" />
            <mxPoint x="1114.6892655367233" y="628.0314960629921" as="targetPoint" />
          </mxGeometry>
        </mxCell>
        <mxCell id="0-PR4jEMZpkDc8mjO-xp-7" value="&lt;font style=&quot;font-size: 15px;&quot;&gt;&lt;b&gt;View Courses&lt;/b&gt;&lt;/font&gt;" style="ellipse;whiteSpace=wrap;html=1;fillColor=default;" parent="1" vertex="1">
          <mxGeometry x="1129.9990960451973" y="883.0891338582676" width="132.93785310734464" height="57.08661417322835" as="geometry" />
        </mxCell>
        <mxCell id="0-PR4jEMZpkDc8mjO-xp-8" value="&lt;font style=&quot;font-size: 15px;&quot;&gt;&lt;b&gt;Login&lt;/b&gt;&lt;/font&gt;" style="ellipse;whiteSpace=wrap;html=1;fillColor=default;" parent="1" vertex="1">
          <mxGeometry x="1245.3153107344633" y="497.54472440944886" width="132.93785310734464" height="57.08661417322835" as="geometry" />
        </mxCell>
        <mxCell id="0-PR4jEMZpkDc8mjO-xp-10" value="&lt;font size=&quot;1&quot; style=&quot;&quot;&gt;&lt;b style=&quot;font-size: 14px;&quot;&gt;Authenticate User&lt;/b&gt;&lt;/font&gt;" style="ellipse;whiteSpace=wrap;html=1;fillColor=default;" parent="1" vertex="1">
          <mxGeometry x="1479.8370056497176" y="463.2993700787402" width="132.93785310734464" height="57.08661417322835" as="geometry" />
        </mxCell>
        <mxCell id="0-PR4jEMZpkDc8mjO-xp-11" value="" style="endArrow=none;html=1;rounded=0;entryX=0;entryY=0.5;entryDx=0;entryDy=0;exitX=0.5;exitY=0.5;exitDx=0;exitDy=0;exitPerimeter=0;" parent="1" source="0-PR4jEMZpkDc8mjO-xp-3" target="0-PR4jEMZpkDc8mjO-xp-8" edge="1">
          <mxGeometry width="50" height="50" relative="1" as="geometry">
            <mxPoint x="650.4293785310734" y="774.1732283464567" as="sourcePoint" />
            <mxPoint x="911.1920903954802" y="759.3307086614174" as="targetPoint" />
          </mxGeometry>
        </mxCell>
        <mxCell id="0-PR4jEMZpkDc8mjO-xp-14" value="" style="endArrow=open;dashed=1;html=1;rounded=0;entryX=0;entryY=0.5;entryDx=0;entryDy=0;exitX=1;exitY=0;exitDx=0;exitDy=0;strokeWidth=2;endFill=0;" parent="1" source="0-PR4jEMZpkDc8mjO-xp-8" target="0-PR4jEMZpkDc8mjO-xp-10" edge="1">
          <mxGeometry width="50" height="50" relative="1" as="geometry">
            <mxPoint x="1091.5871186440677" y="897.1486614173227" as="sourcePoint" />
            <mxPoint x="1142.7170621468927" y="840.0620472440944" as="targetPoint" />
          </mxGeometry>
        </mxCell>
        <mxCell id="0-PR4jEMZpkDc8mjO-xp-15" value="&amp;lt;&amp;lt;Include&amp;gt;&amp;gt;" style="edgeLabel;html=1;align=center;verticalAlign=middle;resizable=0;points=[];" parent="0-PR4jEMZpkDc8mjO-xp-14" vertex="1" connectable="0">
          <mxGeometry x="-0.1541" relative="1" as="geometry">
            <mxPoint as="offset" />
          </mxGeometry>
        </mxCell>
        <mxCell id="0-PR4jEMZpkDc8mjO-xp-17" value="&lt;font style=&quot;font-size: 15px;&quot;&gt;&lt;b&gt;Register&lt;/b&gt;&lt;/font&gt;" style="ellipse;whiteSpace=wrap;html=1;fillColor=default;" parent="1" vertex="1">
          <mxGeometry x="1324.1653672316384" y="579.9986614173228" width="132.93785310734464" height="57.08661417322835" as="geometry" />
        </mxCell>
        <mxCell id="0-PR4jEMZpkDc8mjO-xp-18" value="" style="endArrow=none;html=1;rounded=0;entryX=0;entryY=0.5;entryDx=0;entryDy=0;exitX=0.5;exitY=0.5;exitDx=0;exitDy=0;exitPerimeter=0;" parent="1" source="0-PR4jEMZpkDc8mjO-xp-3" target="0-PR4jEMZpkDc8mjO-xp-17" edge="1">
          <mxGeometry width="50" height="50" relative="1" as="geometry">
            <mxPoint x="660.6553672316384" y="785.5905511811023" as="sourcePoint" />
            <mxPoint x="921.4180790960452" y="770.748031496063" as="targetPoint" />
          </mxGeometry>
        </mxCell>
        <mxCell id="0-PR4jEMZpkDc8mjO-xp-19" value="&lt;font style=&quot;font-size: 15px;&quot;&gt;&lt;b&gt;validate Information&lt;/b&gt;&lt;/font&gt;" style="ellipse;whiteSpace=wrap;html=1;fillColor=default;" parent="1" vertex="1">
          <mxGeometry x="1130" y="679.0499999999998" width="131.36" height="44.17" as="geometry" />
        </mxCell>
        <mxCell id="0-PR4jEMZpkDc8mjO-xp-20" value="" style="endArrow=open;dashed=1;html=1;rounded=0;entryX=1;entryY=0;entryDx=0;entryDy=0;exitX=0;exitY=1;exitDx=0;exitDy=0;strokeWidth=2;endFill=0;" parent="1" source="0-PR4jEMZpkDc8mjO-xp-17" target="0-PR4jEMZpkDc8mjO-xp-19" edge="1">
          <mxGeometry width="50" height="50" relative="1" as="geometry">
            <mxPoint x="1041.4797740112995" y="889.1565354330708" as="sourcePoint" />
            <mxPoint x="1122.2650847457628" y="925.6919685039369" as="targetPoint" />
          </mxGeometry>
        </mxCell>
        <mxCell id="0-PR4jEMZpkDc8mjO-xp-21" value="&amp;lt;&amp;lt;Include&amp;gt;&amp;gt;" style="edgeLabel;html=1;align=center;verticalAlign=middle;resizable=0;points=[];" parent="0-PR4jEMZpkDc8mjO-xp-20" vertex="1" connectable="0">
          <mxGeometry x="-0.1541" relative="1" as="geometry">
            <mxPoint x="3" y="-3" as="offset" />
          </mxGeometry>
        </mxCell>
        <mxCell id="0-PR4jEMZpkDc8mjO-xp-22" value="&lt;font style=&quot;font-size: 15px;&quot;&gt;&lt;b&gt;manage account&lt;/b&gt;&lt;/font&gt;" style="ellipse;whiteSpace=wrap;html=1;fillColor=default;" parent="1" vertex="1">
          <mxGeometry x="1324.165141242938" y="320.0902362204724" width="132.93785310734464" height="57.08661417322835" as="geometry" />
        </mxCell>
        <mxCell id="0-PR4jEMZpkDc8mjO-xp-23" value="&lt;font style=&quot;font-size: 15px;&quot;&gt;&lt;b&gt;change profile picture&lt;/b&gt;&lt;/font&gt;" style="ellipse;whiteSpace=wrap;html=1;fillColor=default;" parent="1" vertex="1">
          <mxGeometry x="1498.008079096045" y="270.82700787401575" width="132.93785310734464" height="57.08661417322835" as="geometry" />
        </mxCell>
        <mxCell id="0-PR4jEMZpkDc8mjO-xp-24" value="" style="endArrow=none;dashed=1;html=1;rounded=0;entryX=0;entryY=1;entryDx=0;entryDy=0;exitX=1;exitY=0.5;exitDx=0;exitDy=0;startArrow=open;startFill=0;strokeWidth=2;" parent="1" source="0-PR4jEMZpkDc8mjO-xp-22" target="0-PR4jEMZpkDc8mjO-xp-23" edge="1">
          <mxGeometry width="50" height="50" relative="1" as="geometry">
            <mxPoint x="1010.8018079096046" y="848.0541732283464" as="sourcePoint" />
            <mxPoint x="1091.5871186440677" y="777.2667716535433" as="targetPoint" />
          </mxGeometry>
        </mxCell>
        <mxCell id="0-PR4jEMZpkDc8mjO-xp-25" value="&amp;lt;&amp;lt;Extends&amp;gt;&amp;gt;" style="edgeLabel;html=1;align=center;verticalAlign=middle;resizable=0;points=[];" parent="0-PR4jEMZpkDc8mjO-xp-24" vertex="1" connectable="0">
          <mxGeometry x="0.1275" relative="1" as="geometry">
            <mxPoint as="offset" />
          </mxGeometry>
        </mxCell>
        <mxCell id="0-PR4jEMZpkDc8mjO-xp-26" value="" style="endArrow=none;html=1;rounded=0;entryX=0;entryY=1;entryDx=0;entryDy=0;exitX=0.5;exitY=0.5;exitDx=0;exitDy=0;exitPerimeter=0;" parent="1" source="0-PR4jEMZpkDc8mjO-xp-3" target="0-PR4jEMZpkDc8mjO-xp-22" edge="1">
          <mxGeometry width="50" height="50" relative="1" as="geometry">
            <mxPoint x="613.6158192090395" y="785.5905511811023" as="sourcePoint" />
            <mxPoint x="1022.6553672316385" y="599.488188976378" as="targetPoint" />
          </mxGeometry>
        </mxCell>
        <mxCell id="0-PR4jEMZpkDc8mjO-xp-28" value="&lt;span style=&quot;font-size: 15px;&quot;&gt;&lt;b&gt;change Language&lt;/b&gt;&lt;/span&gt;" style="ellipse;whiteSpace=wrap;html=1;fillColor=default;" parent="1" vertex="1">
          <mxGeometry x="1324.161242937853" y="206.99700787401574" width="132.93785310734464" height="57.08661417322835" as="geometry" />
        </mxCell>
        <mxCell id="0-PR4jEMZpkDc8mjO-xp-29" value="" style="endArrow=none;dashed=1;html=1;rounded=0;entryX=0.5;entryY=1;entryDx=0;entryDy=0;exitX=0.5;exitY=0;exitDx=0;exitDy=0;startArrow=open;startFill=0;strokeWidth=2;" parent="1" source="0-PR4jEMZpkDc8mjO-xp-22" target="0-PR4jEMZpkDc8mjO-xp-28" edge="1">
          <mxGeometry width="50" height="50" relative="1" as="geometry">
            <mxPoint x="1185.6662146892654" y="643.6840944881889" as="sourcePoint" />
            <mxPoint x="1253.1577401129944" y="591.1644094488189" as="targetPoint" />
          </mxGeometry>
        </mxCell>
        <mxCell id="0-PR4jEMZpkDc8mjO-xp-30" value="&amp;lt;&amp;lt;Extends&amp;gt;&amp;gt;" style="edgeLabel;html=1;align=center;verticalAlign=middle;resizable=0;points=[];" parent="0-PR4jEMZpkDc8mjO-xp-29" vertex="1" connectable="0">
          <mxGeometry x="0.1275" relative="1" as="geometry">
            <mxPoint as="offset" />
          </mxGeometry>
        </mxCell>
        <mxCell id="0-PR4jEMZpkDc8mjO-xp-31" value="&lt;span style=&quot;font-size: 15px;&quot;&gt;&lt;b&gt;Log out&lt;/b&gt;&lt;/span&gt;" style="ellipse;whiteSpace=wrap;html=1;fillColor=default;" parent="1" vertex="1">
          <mxGeometry x="1129.9950282485875" y="279.9961417322835" width="132.93785310734464" height="57.08661417322835" as="geometry" />
        </mxCell>
        <mxCell id="0-PR4jEMZpkDc8mjO-xp-32" value="" style="endArrow=none;dashed=1;html=1;rounded=0;entryX=1;entryY=1;entryDx=0;entryDy=0;exitX=0;exitY=0.5;exitDx=0;exitDy=0;startArrow=open;startFill=0;strokeWidth=2;" parent="1" source="0-PR4jEMZpkDc8mjO-xp-22" target="0-PR4jEMZpkDc8mjO-xp-31" edge="1">
          <mxGeometry width="50" height="50" relative="1" as="geometry">
            <mxPoint x="1137.6040677966103" y="634.5502362204724" as="sourcePoint" />
            <mxPoint x="1137.6040677966103" y="577.463622047244" as="targetPoint" />
          </mxGeometry>
        </mxCell>
        <mxCell id="0-PR4jEMZpkDc8mjO-xp-33" value="&amp;lt;&amp;lt;Extends&amp;gt;&amp;gt;" style="edgeLabel;html=1;align=center;verticalAlign=middle;resizable=0;points=[];" parent="0-PR4jEMZpkDc8mjO-xp-32" vertex="1" connectable="0">
          <mxGeometry x="0.1275" relative="1" as="geometry">
            <mxPoint as="offset" />
          </mxGeometry>
        </mxCell>
        <mxCell id="0-PR4jEMZpkDc8mjO-xp-38" value="&lt;font style=&quot;font-size: 15px;&quot;&gt;&lt;b&gt;manage Courses&lt;/b&gt;&lt;/font&gt;" style="ellipse;whiteSpace=wrap;html=1;fillColor=default;" parent="1" vertex="1">
          <mxGeometry x="1327.1247457627117" y="1004.0037795275591" width="132.93785310734464" height="57.08661417322835" as="geometry" />
        </mxCell>
        <mxCell id="0-PR4jEMZpkDc8mjO-xp-40" value="&lt;font style=&quot;&quot;&gt;&lt;span style=&quot;font-size: 15px;&quot;&gt;&lt;b&gt;Delete&amp;nbsp;&lt;/b&gt;&lt;/span&gt;&lt;b style=&quot;font-size: 15px;&quot;&gt;Courses&lt;/b&gt;&lt;/font&gt;" style="ellipse;whiteSpace=wrap;html=1;fillColor=default;" parent="1" vertex="1">
          <mxGeometry x="1429.998644067797" y="910.0005511811023" width="132.93785310734464" height="57.08661417322835" as="geometry" />
        </mxCell>
        <mxCell id="0-PR4jEMZpkDc8mjO-xp-41" value="&lt;font style=&quot;font-size: 15px;&quot;&gt;&lt;b&gt;Add Courses&lt;/b&gt;&lt;/font&gt;" style="ellipse;whiteSpace=wrap;html=1;fillColor=default;" parent="1" vertex="1">
          <mxGeometry x="919.9968926553669" y="910.003228346457" width="132.93785310734464" height="57.08661417322835" as="geometry" />
        </mxCell>
        <mxCell id="0-PR4jEMZpkDc8mjO-xp-42" value="" style="endArrow=none;dashed=1;html=1;rounded=0;entryX=1;entryY=1;entryDx=0;entryDy=0;exitX=0;exitY=0.5;exitDx=0;exitDy=0;startArrow=open;startFill=0;strokeWidth=2;" parent="1" source="0-PR4jEMZpkDc8mjO-xp-38" target="0-PR4jEMZpkDc8mjO-xp-41" edge="1">
          <mxGeometry width="50" height="50" relative="1" as="geometry">
            <mxPoint x="1137.4645992274673" y="1037.8306347872608" as="sourcePoint" />
            <mxPoint x="1254.180338983051" y="592.3061417322834" as="targetPoint" />
          </mxGeometry>
        </mxCell>
        <mxCell id="0-PR4jEMZpkDc8mjO-xp-43" value="&amp;lt;&amp;lt;Extends&amp;gt;&amp;gt;" style="edgeLabel;html=1;align=center;verticalAlign=middle;resizable=0;points=[];" parent="0-PR4jEMZpkDc8mjO-xp-42" vertex="1" connectable="0">
          <mxGeometry x="0.1275" relative="1" as="geometry">
            <mxPoint as="offset" />
          </mxGeometry>
        </mxCell>
        <mxCell id="0-PR4jEMZpkDc8mjO-xp-44" value="" style="endArrow=none;dashed=1;html=1;rounded=0;entryX=0;entryY=1;entryDx=0;entryDy=0;exitX=0.5;exitY=0;exitDx=0;exitDy=0;startArrow=open;startFill=0;strokeWidth=2;" parent="1" source="0-PR4jEMZpkDc8mjO-xp-38" target="0-PR4jEMZpkDc8mjO-xp-40" edge="1">
          <mxGeometry width="50" height="50" relative="1" as="geometry">
            <mxPoint x="1090.003672316384" y="989.3037795275591" as="sourcePoint" />
            <mxPoint x="1618.1793785310736" y="477.68755905511813" as="targetPoint" />
          </mxGeometry>
        </mxCell>
        <mxCell id="0-PR4jEMZpkDc8mjO-xp-45" value="&amp;lt;&amp;lt;Extends&amp;gt;&amp;gt;" style="edgeLabel;html=1;align=center;verticalAlign=middle;resizable=0;points=[];" parent="0-PR4jEMZpkDc8mjO-xp-44" vertex="1" connectable="0">
          <mxGeometry x="0.1275" relative="1" as="geometry">
            <mxPoint as="offset" />
          </mxGeometry>
        </mxCell>
        <mxCell id="0-PR4jEMZpkDc8mjO-xp-46" value="&lt;font style=&quot;&quot;&gt;&lt;span style=&quot;font-size: 15px;&quot;&gt;&lt;b&gt;Update&amp;nbsp;&lt;/b&gt;&lt;/span&gt;&lt;b style=&quot;font-size: 15px;&quot;&gt;Courses&lt;/b&gt;&lt;/font&gt;" style="ellipse;whiteSpace=wrap;html=1;fillColor=default;" parent="1" vertex="1">
          <mxGeometry x="1029.996892655367" y="1020.0043307086617" width="132.93785310734464" height="57.08661417322835" as="geometry" />
        </mxCell>
        <mxCell id="0-PR4jEMZpkDc8mjO-xp-47" value="" style="endArrow=none;dashed=1;html=1;rounded=0;entryX=1;entryY=0.5;entryDx=0;entryDy=0;startArrow=open;startFill=0;strokeWidth=2;exitX=0;exitY=1;exitDx=0;exitDy=0;" parent="1" source="0-PR4jEMZpkDc8mjO-xp-38" target="0-PR4jEMZpkDc8mjO-xp-46" edge="1">
          <mxGeometry width="50" height="50" relative="1" as="geometry">
            <mxPoint x="1090" y="1046" as="sourcePoint" />
            <mxPoint x="1495.5136723163841" y="463.2903937007874" as="targetPoint" />
          </mxGeometry>
        </mxCell>
        <mxCell id="0-PR4jEMZpkDc8mjO-xp-48" value="&amp;lt;&amp;lt;Extends&amp;gt;&amp;gt;" style="edgeLabel;html=1;align=center;verticalAlign=middle;resizable=0;points=[];" parent="0-PR4jEMZpkDc8mjO-xp-47" vertex="1" connectable="0">
          <mxGeometry x="0.1275" relative="1" as="geometry">
            <mxPoint x="2" y="-1" as="offset" />
          </mxGeometry>
        </mxCell>
        <mxCell id="0-PR4jEMZpkDc8mjO-xp-51" value="" style="endArrow=none;html=1;rounded=0;entryX=0;entryY=0.5;entryDx=0;entryDy=0;exitX=0.5;exitY=0.5;exitDx=0;exitDy=0;exitPerimeter=0;" parent="1" source="0-PR4jEMZpkDc8mjO-xp-3" target="0-PR4jEMZpkDc8mjO-xp-55" edge="1">
          <mxGeometry width="50" height="50" relative="1" as="geometry">
            <mxPoint x="659.632768361582" y="785.5905511811023" as="sourcePoint" />
            <mxPoint x="1349.8870056497176" y="1056.1811023622047" as="targetPoint" />
          </mxGeometry>
        </mxCell>
        <mxCell id="0-PR4jEMZpkDc8mjO-xp-52" value="" style="endArrow=none;html=1;rounded=0;entryX=0;entryY=0.5;entryDx=0;entryDy=0;exitX=0.5;exitY=0.5;exitDx=0;exitDy=0;exitPerimeter=0;" parent="1" source="0-PR4jEMZpkDc8mjO-xp-3" target="0-PR4jEMZpkDc8mjO-xp-50" edge="1">
          <mxGeometry width="50" height="50" relative="1" as="geometry">
            <mxPoint x="659.632768361582" y="785.5905511811023" as="sourcePoint" />
            <mxPoint x="1215.9265536723165" y="1058.464566929134" as="targetPoint" />
          </mxGeometry>
        </mxCell>
        <mxCell id="0-PR4jEMZpkDc8mjO-xp-53" value="&lt;span style=&quot;font-size: 15px;&quot;&gt;&lt;b&gt;Upload Code&lt;/b&gt;&lt;/span&gt;" style="ellipse;whiteSpace=wrap;html=1;fillColor=default;" parent="1" vertex="1">
          <mxGeometry x="850.0034463276836" y="270.83055118110235" width="132.93785310734464" height="57.08661417322835" as="geometry" />
        </mxCell>
        <mxCell id="0-PR4jEMZpkDc8mjO-xp-54" value="" style="endArrow=none;html=1;rounded=0;entryX=0;entryY=1;entryDx=0;entryDy=0;exitX=0.5;exitY=0.5;exitDx=0;exitDy=0;exitPerimeter=0;" parent="1" source="0-PR4jEMZpkDc8mjO-xp-3" target="0-PR4jEMZpkDc8mjO-xp-53" edge="1">
          <mxGeometry width="50" height="50" relative="1" as="geometry">
            <mxPoint x="1268.0790960451977" y="1027.6377952755906" as="sourcePoint" />
            <mxPoint x="1319.2090395480227" y="970.5511811023622" as="targetPoint" />
          </mxGeometry>
        </mxCell>
        <mxCell id="0-PR4jEMZpkDc8mjO-xp-55" value="&lt;font style=&quot;font-size: 15px;&quot;&gt;&lt;b&gt;manage messages&lt;/b&gt;&lt;/font&gt;" style="ellipse;whiteSpace=wrap;html=1;fillColor=default;" parent="1" vertex="1">
          <mxGeometry x="1337.349209039548" y="752.9111811023621" width="132.93785310734464" height="57.08661417322835" as="geometry" />
        </mxCell>
        <mxCell id="0-PR4jEMZpkDc8mjO-xp-56" value="&lt;font style=&quot;font-size: 15px;&quot;&gt;&lt;b&gt;send messages&lt;/b&gt;&lt;/font&gt;" style="ellipse;whiteSpace=wrap;html=1;fillColor=default;" parent="1" vertex="1">
          <mxGeometry x="1337.3530508474576" y="852.9124409448817" width="132.93785310734464" height="57.08661417322835" as="geometry" />
        </mxCell>
        <mxCell id="0-PR4jEMZpkDc8mjO-xp-57" value="&lt;font style=&quot;font-size: 15px;&quot;&gt;&lt;b&gt;view messages&lt;/b&gt;&lt;/font&gt;" style="ellipse;whiteSpace=wrap;html=1;fillColor=default;" parent="1" vertex="1">
          <mxGeometry x="1555.7469491525424" y="825.9971653543307" width="132.93785310734464" height="57.08661417322835" as="geometry" />
        </mxCell>
        <mxCell id="0-PR4jEMZpkDc8mjO-xp-58" value="" style="endArrow=none;dashed=1;html=1;rounded=0;entryX=0;entryY=0.5;entryDx=0;entryDy=0;exitX=1;exitY=1;exitDx=0;exitDy=0;startArrow=open;startFill=0;strokeWidth=2;" parent="1" source="0-PR4jEMZpkDc8mjO-xp-55" target="0-PR4jEMZpkDc8mjO-xp-57" edge="1">
          <mxGeometry width="50" height="50" relative="1" as="geometry">
            <mxPoint x="1041.4797740112995" y="848.0541732283464" as="sourcePoint" />
            <mxPoint x="1572.54694915254" y="771.5604724409445" as="targetPoint" />
          </mxGeometry>
        </mxCell>
        <mxCell id="0-PR4jEMZpkDc8mjO-xp-59" value="&amp;lt;&amp;lt;Extends&amp;gt;&amp;gt;" style="edgeLabel;html=1;align=center;verticalAlign=middle;resizable=0;points=[];" parent="0-PR4jEMZpkDc8mjO-xp-58" vertex="1" connectable="0">
          <mxGeometry x="0.1275" relative="1" as="geometry">
            <mxPoint as="offset" />
          </mxGeometry>
        </mxCell>
        <mxCell id="0-PR4jEMZpkDc8mjO-xp-60" value="" style="endArrow=none;dashed=1;html=1;rounded=0;entryX=0.5;entryY=0;entryDx=0;entryDy=0;exitX=0.5;exitY=1;exitDx=0;exitDy=0;startArrow=open;startFill=0;strokeWidth=2;" parent="1" source="0-PR4jEMZpkDc8mjO-xp-55" target="0-PR4jEMZpkDc8mjO-xp-56" edge="1">
          <mxGeometry width="50" height="50" relative="1" as="geometry">
            <mxPoint x="1152.9430508474577" y="1096.951811023622" as="sourcePoint" />
            <mxPoint x="1243.9543502824858" y="1122.0699212598424" as="targetPoint" />
          </mxGeometry>
        </mxCell>
        <mxCell id="0-PR4jEMZpkDc8mjO-xp-61" value="&amp;lt;&amp;lt;Extends&amp;gt;&amp;gt;" style="edgeLabel;html=1;align=center;verticalAlign=middle;resizable=0;points=[];" parent="0-PR4jEMZpkDc8mjO-xp-60" vertex="1" connectable="0">
          <mxGeometry x="0.1275" relative="1" as="geometry">
            <mxPoint as="offset" />
          </mxGeometry>
        </mxCell>
        <mxCell id="0-PR4jEMZpkDc8mjO-xp-63" value="&lt;font style=&quot;font-size: 15px;&quot;&gt;&lt;b&gt;View Tasks&lt;/b&gt;&lt;/font&gt;" style="ellipse;whiteSpace=wrap;html=1;fillColor=default;" parent="1" vertex="1">
          <mxGeometry x="1269.9996610169492" y="1515.0043307086614" width="132.93785310734464" height="57.08661417322835" as="geometry" />
        </mxCell>
        <mxCell id="0-PR4jEMZpkDc8mjO-xp-64" value="" style="endArrow=none;html=1;rounded=0;exitX=0.5;exitY=0.5;exitDx=0;exitDy=0;exitPerimeter=0;entryX=0;entryY=0;entryDx=0;entryDy=0;" parent="1" source="0-PR4jEMZpkDc8mjO-xp-3" target="0-PR4jEMZpkDc8mjO-xp-63" edge="1">
          <mxGeometry width="50" height="50" relative="1" as="geometry">
            <mxPoint x="506.2429378531073" y="722.7952755905512" as="sourcePoint" />
            <mxPoint x="1081.9661016949153" y="596.0629921259842" as="targetPoint" />
          </mxGeometry>
        </mxCell>
        <mxCell id="0-PR4jEMZpkDc8mjO-xp-65" value="&lt;font style=&quot;font-size: 15px;&quot;&gt;&lt;b&gt;View Recent Tasks&lt;/b&gt;&lt;/font&gt;" style="ellipse;whiteSpace=wrap;html=1;fillColor=default;" parent="1" vertex="1">
          <mxGeometry x="1270.0016949152546" y="1387.9984251968503" width="132.93785310734464" height="57.08661417322835" as="geometry" />
        </mxCell>
        <mxCell id="0-PR4jEMZpkDc8mjO-xp-66" value="&lt;font style=&quot;font-size: 15px;&quot;&gt;&lt;b&gt;View missed Tasks&lt;/b&gt;&lt;/font&gt;" style="ellipse;whiteSpace=wrap;html=1;fillColor=default;" parent="1" vertex="1">
          <mxGeometry x="1269.9975141242935" y="1620.825748031496" width="132.93785310734464" height="57.08661417322835" as="geometry" />
        </mxCell>
        <mxCell id="0-PR4jEMZpkDc8mjO-xp-67" value="&lt;font style=&quot;&quot;&gt;&lt;b style=&quot;font-size: 15px;&quot;&gt;View&lt;/b&gt;&lt;/font&gt;&lt;div&gt;&lt;font style=&quot;&quot;&gt;&lt;span style=&quot;font-size: 15px;&quot;&gt;&lt;b&gt;completed&amp;nbsp;&lt;/b&gt;&lt;/span&gt;&lt;b style=&quot;font-size: 15px;&quot;&gt;Tasks&lt;/b&gt;&lt;/font&gt;&lt;/div&gt;" style="ellipse;whiteSpace=wrap;html=1;fillColor=default;" parent="1" vertex="1">
          <mxGeometry x="1029.9958757062145" y="1502.8323622047244" width="132.93785310734464" height="57.08661417322835" as="geometry" />
        </mxCell>
        <mxCell id="0-PR4jEMZpkDc8mjO-xp-68" value="" style="endArrow=none;dashed=1;html=1;rounded=0;entryX=0.5;entryY=0;entryDx=0;entryDy=0;exitX=0.5;exitY=1;exitDx=0;exitDy=0;startArrow=open;startFill=0;strokeWidth=2;" parent="1" source="0-PR4jEMZpkDc8mjO-xp-63" target="0-PR4jEMZpkDc8mjO-xp-66" edge="1">
          <mxGeometry width="50" height="50" relative="1" as="geometry">
            <mxPoint x="1627.5905649717515" y="1743.5811023622048" as="sourcePoint" />
            <mxPoint x="1582.5962146892653" y="1678.5023622047245" as="targetPoint" />
          </mxGeometry>
        </mxCell>
        <mxCell id="0-PR4jEMZpkDc8mjO-xp-69" value="&amp;lt;&amp;lt;Extends&amp;gt;&amp;gt;" style="edgeLabel;html=1;align=center;verticalAlign=middle;resizable=0;points=[];" parent="0-PR4jEMZpkDc8mjO-xp-68" vertex="1" connectable="0">
          <mxGeometry x="0.1275" relative="1" as="geometry">
            <mxPoint as="offset" />
          </mxGeometry>
        </mxCell>
        <mxCell id="0-PR4jEMZpkDc8mjO-xp-70" value="" style="endArrow=none;dashed=1;html=1;rounded=0;entryX=0.5;entryY=1;entryDx=0;entryDy=0;exitX=0.5;exitY=0;exitDx=0;exitDy=0;startArrow=open;startFill=0;strokeWidth=2;" parent="1" source="0-PR4jEMZpkDc8mjO-xp-63" target="0-PR4jEMZpkDc8mjO-xp-65" edge="1">
          <mxGeometry width="50" height="50" relative="1" as="geometry">
            <mxPoint x="1302.4041242937851" y="1732.1637795275592" as="sourcePoint" />
            <mxPoint x="1341.2628813559322" y="1681.927559055118" as="targetPoint" />
          </mxGeometry>
        </mxCell>
        <mxCell id="0-PR4jEMZpkDc8mjO-xp-71" value="&amp;lt;&amp;lt;Extends&amp;gt;&amp;gt;" style="edgeLabel;html=1;align=center;verticalAlign=middle;resizable=0;points=[];" parent="0-PR4jEMZpkDc8mjO-xp-70" vertex="1" connectable="0">
          <mxGeometry x="0.1275" relative="1" as="geometry">
            <mxPoint as="offset" />
          </mxGeometry>
        </mxCell>
        <mxCell id="0-PR4jEMZpkDc8mjO-xp-72" value="" style="endArrow=none;dashed=1;html=1;rounded=0;entryX=1;entryY=0.5;entryDx=0;entryDy=0;exitX=0;exitY=0.5;exitDx=0;exitDy=0;startArrow=open;startFill=0;strokeWidth=2;" parent="1" source="0-PR4jEMZpkDc8mjO-xp-63" target="0-PR4jEMZpkDc8mjO-xp-67" edge="1">
          <mxGeometry width="50" height="50" relative="1" as="geometry">
            <mxPoint x="1255.3645762711863" y="1724.171653543307" as="sourcePoint" />
            <mxPoint x="1117.3137288135317" y="1707.045669291339" as="targetPoint" />
          </mxGeometry>
        </mxCell>
        <mxCell id="0-PR4jEMZpkDc8mjO-xp-73" value="&amp;lt;&amp;lt;Extends&amp;gt;&amp;gt;" style="edgeLabel;html=1;align=center;verticalAlign=middle;resizable=0;points=[];" parent="0-PR4jEMZpkDc8mjO-xp-72" vertex="1" connectable="0">
          <mxGeometry x="0.1275" relative="1" as="geometry">
            <mxPoint as="offset" />
          </mxGeometry>
        </mxCell>
        <mxCell id="0-PR4jEMZpkDc8mjO-xp-74" value="&lt;font style=&quot;font-size: 15px;&quot;&gt;&lt;b&gt;manage feedback&lt;/b&gt;&lt;/font&gt;" style="ellipse;whiteSpace=wrap;html=1;fillColor=default;" parent="1" vertex="1">
          <mxGeometry x="1365.0694350282488" y="1089.9990551181102" width="132.93785310734464" height="57.08661417322835" as="geometry" />
        </mxCell>
        <mxCell id="0-PR4jEMZpkDc8mjO-xp-75" value="&lt;font style=&quot;font-size: 15px;&quot;&gt;&lt;b&gt;delete feedback&lt;/b&gt;&lt;/font&gt;" style="ellipse;whiteSpace=wrap;html=1;fillColor=default;" parent="1" vertex="1">
          <mxGeometry x="1612.7753107344636" y="1050.00031496063" width="132.93785310734464" height="57.08661417322835" as="geometry" />
        </mxCell>
        <mxCell id="0-PR4jEMZpkDc8mjO-xp-76" value="&lt;font style=&quot;font-size: 15px;&quot;&gt;&lt;b&gt;add feedback&lt;/b&gt;&lt;/font&gt;" style="ellipse;whiteSpace=wrap;html=1;fillColor=default;" parent="1" vertex="1">
          <mxGeometry x="1206.727175141243" y="1170.0037007874018" width="132.93785310734464" height="57.08661417322835" as="geometry" />
        </mxCell>
        <mxCell id="0-PR4jEMZpkDc8mjO-xp-77" value="" style="endArrow=none;dashed=1;html=1;rounded=0;entryX=1;entryY=0;entryDx=0;entryDy=0;exitX=0;exitY=1;exitDx=0;exitDy=0;startArrow=open;startFill=0;strokeWidth=2;" parent="1" source="0-PR4jEMZpkDc8mjO-xp-74" target="0-PR4jEMZpkDc8mjO-xp-76" edge="1">
          <mxGeometry width="50" height="50" relative="1" as="geometry">
            <mxPoint x="1086.4741242937853" y="1125.4951181102363" as="sourcePoint" />
            <mxPoint x="1163.1690395480227" y="1176.873070866142" as="targetPoint" />
          </mxGeometry>
        </mxCell>
        <mxCell id="0-PR4jEMZpkDc8mjO-xp-78" value="&amp;lt;&amp;lt;Extends&amp;gt;&amp;gt;" style="edgeLabel;html=1;align=center;verticalAlign=middle;resizable=0;points=[];" parent="0-PR4jEMZpkDc8mjO-xp-77" vertex="1" connectable="0">
          <mxGeometry x="0.1275" relative="1" as="geometry">
            <mxPoint as="offset" />
          </mxGeometry>
        </mxCell>
        <mxCell id="0-PR4jEMZpkDc8mjO-xp-79" value="" style="endArrow=none;dashed=1;html=1;rounded=0;entryX=0;entryY=0.5;entryDx=0;entryDy=0;startArrow=open;startFill=0;strokeWidth=2;exitX=1;exitY=0.5;exitDx=0;exitDy=0;" parent="1" source="0-PR4jEMZpkDc8mjO-xp-74" target="0-PR4jEMZpkDc8mjO-xp-75" edge="1">
          <mxGeometry width="50" height="50" relative="1" as="geometry">
            <mxPoint x="1550" y="1147" as="sourcePoint" />
            <mxPoint x="1030.231186440678" y="1268.211653543307" as="targetPoint" />
          </mxGeometry>
        </mxCell>
        <mxCell id="0-PR4jEMZpkDc8mjO-xp-80" value="&amp;lt;&amp;lt;Extends&amp;gt;&amp;gt;" style="edgeLabel;html=1;align=center;verticalAlign=middle;resizable=0;points=[];" parent="0-PR4jEMZpkDc8mjO-xp-79" vertex="1" connectable="0">
          <mxGeometry x="0.1275" relative="1" as="geometry">
            <mxPoint as="offset" />
          </mxGeometry>
        </mxCell>
        <mxCell id="0-PR4jEMZpkDc8mjO-xp-81" value="" style="endArrow=none;html=1;rounded=0;entryX=1;entryY=0;entryDx=0;entryDy=0;exitX=0.5;exitY=0.5;exitDx=0;exitDy=0;exitPerimeter=0;" parent="1" source="0-PR4jEMZpkDc8mjO-xp-1" target="0-PR4jEMZpkDc8mjO-xp-74" edge="1">
          <mxGeometry width="50" height="50" relative="1" as="geometry">
            <mxPoint x="506.2429378531073" y="722.7952755905512" as="sourcePoint" />
            <mxPoint x="877.4463276836159" y="956.8503937007874" as="targetPoint" />
          </mxGeometry>
        </mxCell>
        <mxCell id="0-PR4jEMZpkDc8mjO-xp-83" value="&lt;font style=&quot;font-size: 15px;&quot;&gt;&lt;b&gt;manage Grades&lt;/b&gt;&lt;/font&gt;" style="ellipse;whiteSpace=wrap;html=1;fillColor=default;" parent="1" vertex="1">
          <mxGeometry x="1429.999548022599" y="1279.9996062992125" width="132.93785310734464" height="57.08661417322835" as="geometry" />
        </mxCell>
        <mxCell id="0-PR4jEMZpkDc8mjO-xp-85" value="&lt;font style=&quot;font-size: 15px;&quot;&gt;&lt;b&gt;update Grades&lt;/b&gt;&lt;/font&gt;" style="ellipse;whiteSpace=wrap;html=1;fillColor=default;" parent="1" vertex="1">
          <mxGeometry x="1162.9353107344637" y="1320.000157480315" width="132.93785310734464" height="57.08661417322835" as="geometry" />
        </mxCell>
        <mxCell id="0-PR4jEMZpkDc8mjO-xp-86" value="" style="endArrow=none;dashed=1;html=1;rounded=0;entryX=0.5;entryY=1;entryDx=0;entryDy=0;startArrow=open;startFill=0;strokeWidth=2;exitX=0.5;exitY=0;exitDx=0;exitDy=0;" parent="1" source="0-PR4jEMZpkDc8mjO-xp-83" target="0-PR4jEMZpkDc8mjO-xp-84" edge="1">
          <mxGeometry width="50" height="50" relative="1" as="geometry">
            <mxPoint x="1228" y="1386" as="sourcePoint" />
            <mxPoint x="1103.4406779661017" y="1244.0597637795277" as="targetPoint" />
          </mxGeometry>
        </mxCell>
        <mxCell id="0-PR4jEMZpkDc8mjO-xp-87" value="&amp;lt;&amp;lt;Extends&amp;gt;&amp;gt;" style="edgeLabel;html=1;align=center;verticalAlign=middle;resizable=0;points=[];" parent="0-PR4jEMZpkDc8mjO-xp-86" vertex="1" connectable="0">
          <mxGeometry x="0.1275" relative="1" as="geometry">
            <mxPoint as="offset" />
          </mxGeometry>
        </mxCell>
        <mxCell id="0-PR4jEMZpkDc8mjO-xp-88" value="" style="endArrow=none;dashed=1;html=1;rounded=0;entryX=1;entryY=0.5;entryDx=0;entryDy=0;exitX=0;exitY=1;exitDx=0;exitDy=0;startArrow=open;startFill=0;strokeWidth=2;" parent="1" source="0-PR4jEMZpkDc8mjO-xp-83" target="0-PR4jEMZpkDc8mjO-xp-85" edge="1">
          <mxGeometry width="50" height="50" relative="1" as="geometry">
            <mxPoint x="1043.1073446327682" y="1367.366850393701" as="sourcePoint" />
            <mxPoint x="1114.6892655367233" y="1333.1148818897639" as="targetPoint" />
          </mxGeometry>
        </mxCell>
        <mxCell id="0-PR4jEMZpkDc8mjO-xp-89" value="&amp;lt;&amp;lt;Extends&amp;gt;&amp;gt;" style="edgeLabel;html=1;align=center;verticalAlign=middle;resizable=0;points=[];" parent="0-PR4jEMZpkDc8mjO-xp-88" vertex="1" connectable="0">
          <mxGeometry x="0.1275" relative="1" as="geometry">
            <mxPoint as="offset" />
          </mxGeometry>
        </mxCell>
        <mxCell id="0-PR4jEMZpkDc8mjO-xp-91" value="" style="endArrow=none;html=1;rounded=0;exitX=0.5;exitY=0.5;exitDx=0;exitDy=0;exitPerimeter=0;entryX=1;entryY=0.5;entryDx=0;entryDy=0;" parent="1" source="0-PR4jEMZpkDc8mjO-xp-1" target="0-PR4jEMZpkDc8mjO-xp-83" edge="1">
          <mxGeometry width="50" height="50" relative="1" as="geometry">
            <mxPoint x="506.2429378531073" y="1118.976377952756" as="sourcePoint" />
            <mxPoint x="1460" y="1520" as="targetPoint" />
          </mxGeometry>
        </mxCell>
        <mxCell id="0-PR4jEMZpkDc8mjO-xp-92" value="&lt;font style=&quot;font-size: 15px;&quot;&gt;&lt;b&gt;manage Tasks&lt;/b&gt;&lt;/font&gt;" style="ellipse;whiteSpace=wrap;html=1;fillColor=default;" parent="1" vertex="1">
          <mxGeometry x="1821.6316949152545" y="396.13354330708677" width="132.93785310734464" height="57.08661417322835" as="geometry" />
        </mxCell>
        <mxCell id="0-PR4jEMZpkDc8mjO-xp-93" value="" style="endArrow=none;html=1;rounded=0;exitX=0.5;exitY=0.5;exitDx=0;exitDy=0;exitPerimeter=0;entryX=1;entryY=1;entryDx=0;entryDy=0;" parent="1" source="0-PR4jEMZpkDc8mjO-xp-1" target="0-PR4jEMZpkDc8mjO-xp-92" edge="1">
          <mxGeometry width="50" height="50" relative="1" as="geometry">
            <mxPoint x="506.2429378531073" y="1118.976377952756" as="sourcePoint" />
            <mxPoint x="1080" y="1620" as="targetPoint" />
          </mxGeometry>
        </mxCell>
        <mxCell id="0-PR4jEMZpkDc8mjO-xp-94" value="&lt;font style=&quot;font-size: 15px;&quot;&gt;&lt;b&gt;add Tasks&lt;/b&gt;&lt;/font&gt;" style="ellipse;whiteSpace=wrap;html=1;fillColor=default;" parent="1" vertex="1">
          <mxGeometry x="1642.9334463276834" y="279.9967716535434" width="132.93785310734464" height="57.08661417322835" as="geometry" />
        </mxCell>
        <mxCell id="0-PR4jEMZpkDc8mjO-xp-95" value="&lt;font style=&quot;font-size: 15px;&quot;&gt;&lt;b&gt;delete Tasks&lt;/b&gt;&lt;/font&gt;" style="ellipse;whiteSpace=wrap;html=1;fillColor=default;" parent="1" vertex="1">
          <mxGeometry x="1612.9257627118645" y="350.46874015748045" width="132.93785310734464" height="57.08661417322835" as="geometry" />
        </mxCell>
        <mxCell id="0-PR4jEMZpkDc8mjO-xp-96" value="&lt;font style=&quot;font-size: 15px;&quot;&gt;&lt;b&gt;update Tasks&lt;/b&gt;&lt;/font&gt;" style="ellipse;whiteSpace=wrap;html=1;fillColor=default;" parent="1" vertex="1">
          <mxGeometry x="1809.9996045197743" y="259.9987401574805" width="132.93785310734464" height="57.08661417322835" as="geometry" />
        </mxCell>
        <mxCell id="0-PR4jEMZpkDc8mjO-xp-97" value="" style="endArrow=none;dashed=1;html=1;rounded=0;entryX=1;entryY=1;entryDx=0;entryDy=0;exitX=0;exitY=0;exitDx=0;exitDy=0;startArrow=open;startFill=0;strokeWidth=2;" parent="1" source="0-PR4jEMZpkDc8mjO-xp-92" target="0-PR4jEMZpkDc8mjO-xp-94" edge="1">
          <mxGeometry width="50" height="50" relative="1" as="geometry">
            <mxPoint x="1023.6779661016949" y="1387.9180314960631" as="sourcePoint" />
            <mxPoint x="1103.4406779661017" y="1415.3196062992126" as="targetPoint" />
          </mxGeometry>
        </mxCell>
        <mxCell id="0-PR4jEMZpkDc8mjO-xp-98" value="&amp;lt;&amp;lt;Extends&amp;gt;&amp;gt;" style="edgeLabel;html=1;align=center;verticalAlign=middle;resizable=0;points=[];" parent="0-PR4jEMZpkDc8mjO-xp-97" vertex="1" connectable="0">
          <mxGeometry x="0.1275" relative="1" as="geometry">
            <mxPoint as="offset" />
          </mxGeometry>
        </mxCell>
        <mxCell id="0-PR4jEMZpkDc8mjO-xp-99" value="" style="endArrow=none;dashed=1;html=1;rounded=0;entryX=0.5;entryY=1;entryDx=0;entryDy=0;exitX=0.5;exitY=0;exitDx=0;exitDy=0;startArrow=open;startFill=0;strokeWidth=2;" parent="1" source="0-PR4jEMZpkDc8mjO-xp-92" target="0-PR4jEMZpkDc8mjO-xp-96" edge="1">
          <mxGeometry width="50" height="50" relative="1" as="geometry">
            <mxPoint x="849.8361581920904" y="1399.3353543307087" as="sourcePoint" />
            <mxPoint x="980.728813559322" y="1472.406220472441" as="targetPoint" />
          </mxGeometry>
        </mxCell>
        <mxCell id="0-PR4jEMZpkDc8mjO-xp-100" value="&amp;lt;&amp;lt;Extends&amp;gt;&amp;gt;" style="edgeLabel;html=1;align=center;verticalAlign=middle;resizable=0;points=[];" parent="0-PR4jEMZpkDc8mjO-xp-99" vertex="1" connectable="0">
          <mxGeometry x="0.1275" relative="1" as="geometry">
            <mxPoint as="offset" />
          </mxGeometry>
        </mxCell>
        <mxCell id="0-PR4jEMZpkDc8mjO-xp-101" value="" style="endArrow=none;dashed=1;html=1;rounded=0;entryX=1;entryY=1;entryDx=0;entryDy=0;exitX=0;exitY=0.5;exitDx=0;exitDy=0;startArrow=open;startFill=0;strokeWidth=2;" parent="1" source="0-PR4jEMZpkDc8mjO-xp-92" target="0-PR4jEMZpkDc8mjO-xp-95" edge="1">
          <mxGeometry width="50" height="50" relative="1" as="geometry">
            <mxPoint x="802.7966101694915" y="1407.3274803149607" as="sourcePoint" />
            <mxPoint x="884.6045197740114" y="1510.0833858267717" as="targetPoint" />
          </mxGeometry>
        </mxCell>
        <mxCell id="0-PR4jEMZpkDc8mjO-xp-102" value="&amp;lt;&amp;lt;Extends&amp;gt;&amp;gt;" style="edgeLabel;html=1;align=center;verticalAlign=middle;resizable=0;points=[];" parent="0-PR4jEMZpkDc8mjO-xp-101" vertex="1" connectable="0">
          <mxGeometry x="0.1275" relative="1" as="geometry">
            <mxPoint as="offset" />
          </mxGeometry>
        </mxCell>
        <mxCell id="0-PR4jEMZpkDc8mjO-xp-103" value="" style="endArrow=none;dashed=1;html=1;rounded=0;entryX=1;entryY=1;entryDx=0;entryDy=0;startArrow=open;startFill=0;strokeWidth=2;exitX=0;exitY=0;exitDx=0;exitDy=0;" parent="1" source="0-PR4jEMZpkDc8mjO-xp-38" target="0-PR4jEMZpkDc8mjO-xp-7" edge="1">
          <mxGeometry width="50" height="50" relative="1" as="geometry">
            <mxPoint x="1513.502824858757" y="414.0203937007874" as="sourcePoint" />
            <mxPoint x="1576.90395480226" y="290.7133070866142" as="targetPoint" />
          </mxGeometry>
        </mxCell>
        <mxCell id="0-PR4jEMZpkDc8mjO-xp-104" value="&amp;lt;&amp;lt;Extends&amp;gt;&amp;gt;" style="edgeLabel;html=1;align=center;verticalAlign=middle;resizable=0;points=[];" parent="0-PR4jEMZpkDc8mjO-xp-103" vertex="1" connectable="0">
          <mxGeometry x="0.1275" relative="1" as="geometry">
            <mxPoint as="offset" />
          </mxGeometry>
        </mxCell>
        <mxCell id="0-PR4jEMZpkDc8mjO-xp-107" value="&lt;font style=&quot;font-size: 20px;&quot;&gt;&lt;span style=&quot;font-size: 20px;&quot;&gt;Gradepilot System&lt;/span&gt;&lt;/font&gt;" style="text;strokeColor=none;align=center;fillColor=none;html=1;verticalAlign=middle;whiteSpace=wrap;rounded=0;fontSize=20;fontStyle=1;movable=1;resizable=1;rotatable=1;deletable=1;editable=1;locked=0;connectable=1;" parent="1" vertex="1">
          <mxGeometry x="1250.433163841808" y="110.00464566929134" width="219.8587570621469" height="34.25196850393701" as="geometry" />
        </mxCell>
        <mxCell id="rXm-mO-cJWYijpQKz9_G-1" value="" style="endArrow=none;html=1;rounded=0;entryX=1;entryY=0.5;entryDx=0;entryDy=0;exitX=0.5;exitY=0.5;exitDx=0;exitDy=0;exitPerimeter=0;" parent="1" source="0-PR4jEMZpkDc8mjO-xp-1" target="0-PR4jEMZpkDc8mjO-xp-38" edge="1">
          <mxGeometry width="50" height="50" relative="1" as="geometry">
            <mxPoint x="491" y="1140" as="sourcePoint" />
            <mxPoint x="971" y="1146" as="targetPoint" />
          </mxGeometry>
        </mxCell>
        <mxCell id="rXm-mO-cJWYijpQKz9_G-2" value="&lt;font style=&quot;font-size: 15px;&quot;&gt;&lt;b&gt;manage students&lt;/b&gt;&lt;/font&gt;" style="ellipse;whiteSpace=wrap;html=1;fillColor=default;" parent="1" vertex="1">
          <mxGeometry x="1929.9994350282489" y="1227.08905511811" width="132.93785310734464" height="57.08661417322835" as="geometry" />
        </mxCell>
        <mxCell id="EeN0RUagpboEciFaB7Sx-1" value="&lt;font style=&quot;font-size: 15px;&quot;&gt;&lt;b&gt;add students&lt;/b&gt;&lt;/font&gt;" style="ellipse;whiteSpace=wrap;html=1;fillColor=default;" parent="1" vertex="1">
          <mxGeometry x="1708.4094350282487" y="1377.0890551181103" width="132.93785310734464" height="57.08661417322835" as="geometry" />
        </mxCell>
        <mxCell id="EeN0RUagpboEciFaB7Sx-2" value="&lt;font style=&quot;font-size: 15px;&quot;&gt;&lt;b&gt;delete students&lt;/b&gt;&lt;/font&gt;" style="ellipse;whiteSpace=wrap;html=1;fillColor=default;" parent="1" vertex="1">
          <mxGeometry x="1859.9994350282489" y="1416.9990551181104" width="132.93785310734464" height="57.08661417322835" as="geometry" />
        </mxCell>
        <mxCell id="EeN0RUagpboEciFaB7Sx-3" value="" style="endArrow=none;dashed=1;html=1;rounded=0;entryX=0.5;entryY=0;entryDx=0;entryDy=0;exitX=0.5;exitY=1;exitDx=0;exitDy=0;startArrow=open;startFill=0;strokeWidth=2;" parent="1" source="rXm-mO-cJWYijpQKz9_G-2" target="EeN0RUagpboEciFaB7Sx-2" edge="1">
          <mxGeometry width="50" height="50" relative="1" as="geometry">
            <mxPoint x="2257.2200000000003" y="1507.3400000000001" as="sourcePoint" />
            <mxPoint x="2321.2200000000003" y="1538.3400000000001" as="targetPoint" />
          </mxGeometry>
        </mxCell>
        <mxCell id="EeN0RUagpboEciFaB7Sx-4" value="&amp;lt;&amp;lt;Extends&amp;gt;&amp;gt;" style="edgeLabel;html=1;align=center;verticalAlign=middle;resizable=0;points=[];" parent="EeN0RUagpboEciFaB7Sx-3" vertex="1" connectable="0">
          <mxGeometry x="0.1275" relative="1" as="geometry">
            <mxPoint as="offset" />
          </mxGeometry>
        </mxCell>
        <mxCell id="EeN0RUagpboEciFaB7Sx-5" value="" style="endArrow=none;dashed=1;html=1;rounded=0;entryX=1;entryY=0;entryDx=0;entryDy=0;exitX=0;exitY=1;exitDx=0;exitDy=0;startArrow=open;startFill=0;strokeWidth=2;" parent="1" source="rXm-mO-cJWYijpQKz9_G-2" target="EeN0RUagpboEciFaB7Sx-1" edge="1">
          <mxGeometry width="50" height="50" relative="1" as="geometry">
            <mxPoint x="1973.22" y="1535.3400000000001" as="sourcePoint" />
            <mxPoint x="2078.2200000000003" y="1558.3400000000001" as="targetPoint" />
          </mxGeometry>
        </mxCell>
        <mxCell id="EeN0RUagpboEciFaB7Sx-6" value="&amp;lt;&amp;lt;Extends&amp;gt;&amp;gt;" style="edgeLabel;html=1;align=center;verticalAlign=middle;resizable=0;points=[];" parent="EeN0RUagpboEciFaB7Sx-5" vertex="1" connectable="0">
          <mxGeometry x="0.1275" relative="1" as="geometry">
            <mxPoint as="offset" />
          </mxGeometry>
        </mxCell>
        <mxCell id="EeN0RUagpboEciFaB7Sx-7" value="&lt;font style=&quot;font-size: 15px;&quot;&gt;&lt;b&gt;view students&lt;/b&gt;&lt;/font&gt;" style="ellipse;whiteSpace=wrap;html=1;fillColor=default;" parent="1" vertex="1">
          <mxGeometry x="1688.6894350282487" y="1284.1790551181105" width="132.93785310734464" height="57.08661417322835" as="geometry" />
        </mxCell>
        <mxCell id="EeN0RUagpboEciFaB7Sx-8" value="" style="endArrow=none;dashed=1;html=1;rounded=0;entryX=1;entryY=0;entryDx=0;entryDy=0;exitX=0;exitY=0.5;exitDx=0;exitDy=0;startArrow=open;startFill=0;strokeWidth=2;" parent="1" source="rXm-mO-cJWYijpQKz9_G-2" target="EeN0RUagpboEciFaB7Sx-7" edge="1">
          <mxGeometry width="50" height="50" relative="1" as="geometry">
            <mxPoint x="1953.22" y="1556.3400000000001" as="sourcePoint" />
            <mxPoint x="2057.2200000000003" y="1612.3400000000001" as="targetPoint" />
          </mxGeometry>
        </mxCell>
        <mxCell id="EeN0RUagpboEciFaB7Sx-9" value="&amp;lt;&amp;lt;Extends&amp;gt;&amp;gt;" style="edgeLabel;html=1;align=center;verticalAlign=middle;resizable=0;points=[];" parent="EeN0RUagpboEciFaB7Sx-8" vertex="1" connectable="0">
          <mxGeometry x="0.1275" relative="1" as="geometry">
            <mxPoint as="offset" />
          </mxGeometry>
        </mxCell>
        <mxCell id="EeN0RUagpboEciFaB7Sx-10" value="" style="endArrow=none;html=1;rounded=0;exitX=0.5;exitY=0.5;exitDx=0;exitDy=0;exitPerimeter=0;" parent="1" source="0-PR4jEMZpkDc8mjO-xp-1" target="rXm-mO-cJWYijpQKz9_G-2" edge="1">
          <mxGeometry width="50" height="50" relative="1" as="geometry">
            <mxPoint x="491" y="1140" as="sourcePoint" />
            <mxPoint x="1237" y="1224" as="targetPoint" />
          </mxGeometry>
        </mxCell>
        <mxCell id="EeN0RUagpboEciFaB7Sx-11" value="" style="endArrow=none;dashed=1;html=1;rounded=0;entryX=1;entryY=0.5;entryDx=0;entryDy=0;exitX=0;exitY=0.5;exitDx=0;exitDy=0;startArrow=open;startFill=0;strokeWidth=2;" parent="1" source="0-PR4jEMZpkDc8mjO-xp-74" target="0-PR4jEMZpkDc8mjO-xp-50" edge="1">
          <mxGeometry width="50" height="50" relative="1" as="geometry">
            <mxPoint x="1454.96" y="1180.44" as="sourcePoint" />
            <mxPoint x="1556.96" y="1175.44" as="targetPoint" />
          </mxGeometry>
        </mxCell>
        <mxCell id="EeN0RUagpboEciFaB7Sx-12" value="&amp;lt;&amp;lt;Extends&amp;gt;&amp;gt;" style="edgeLabel;html=1;align=center;verticalAlign=middle;resizable=0;points=[];" parent="EeN0RUagpboEciFaB7Sx-11" vertex="1" connectable="0">
          <mxGeometry x="0.1275" relative="1" as="geometry">
            <mxPoint as="offset" />
          </mxGeometry>
        </mxCell>
        <mxCell id="1ELctbnyJc6ecAKPu3EN-1" value="&lt;font size=&quot;1&quot; style=&quot;&quot;&gt;&lt;b style=&quot;font-size: 14px;&quot;&gt;Forgot Password&lt;/b&gt;&lt;/font&gt;" style="ellipse;whiteSpace=wrap;html=1;fillColor=default;" parent="1" vertex="1">
          <mxGeometry x="1327.1270056497176" y="406.2093700787401" width="132.93785310734464" height="57.08661417322835" as="geometry" />
        </mxCell>
        <mxCell id="1ELctbnyJc6ecAKPu3EN-2" value="" style="endArrow=none;dashed=1;html=1;rounded=0;entryX=0.5;entryY=1;entryDx=0;entryDy=0;exitX=0.5;exitY=0;exitDx=0;exitDy=0;startArrow=open;startFill=0;strokeWidth=2;" parent="1" source="0-PR4jEMZpkDc8mjO-xp-8" target="1ELctbnyJc6ecAKPu3EN-1" edge="1">
          <mxGeometry width="50" height="50" relative="1" as="geometry">
            <mxPoint x="1474.96" y="370.44" as="sourcePoint" />
            <mxPoint x="1529.96" y="425.44" as="targetPoint" />
          </mxGeometry>
        </mxCell>
        <mxCell id="1ELctbnyJc6ecAKPu3EN-3" value="&amp;lt;&amp;lt;Extends&amp;gt;&amp;gt;" style="edgeLabel;html=1;align=center;verticalAlign=middle;resizable=0;points=[];" parent="1ELctbnyJc6ecAKPu3EN-2" vertex="1" connectable="0">
          <mxGeometry x="0.1275" relative="1" as="geometry">
            <mxPoint as="offset" />
          </mxGeometry>
        </mxCell>
        <mxCell id="Q-MH4VKtCi4xLxAhCX2A-1" value="&lt;font style=&quot;font-size: 15px;&quot;&gt;&lt;b&gt;send message&lt;/b&gt;&lt;/font&gt;" style="ellipse;whiteSpace=wrap;html=1;fillColor=default;" parent="1" vertex="1">
          <mxGeometry x="1337.3490960451973" y="665.7091338582676" width="132.93785310734464" height="57.08661417322835" as="geometry" />
        </mxCell>
        <mxCell id="Q-MH4VKtCi4xLxAhCX2A-2" value="" style="endArrow=none;html=1;rounded=0;entryX=1;entryY=0.5;entryDx=0;entryDy=0;exitX=0.5;exitY=0.5;exitDx=0;exitDy=0;exitPerimeter=0;" parent="1" source="0-PR4jEMZpkDc8mjO-xp-1" target="0-PR4jEMZpkDc8mjO-xp-55" edge="1">
          <mxGeometry width="50" height="50" relative="1" as="geometry">
            <mxPoint x="491" y="1140" as="sourcePoint" />
            <mxPoint x="1209" y="961" as="targetPoint" />
          </mxGeometry>
        </mxCell>
        <mxCell id="Q-MH4VKtCi4xLxAhCX2A-4" value="&lt;font style=&quot;font-size: 15px;&quot;&gt;&lt;b&gt;send&amp;nbsp;&lt;/b&gt;&lt;/font&gt;&lt;span style=&quot;font-size: 15px;&quot;&gt;&lt;b&gt;broadcast&lt;/b&gt;&lt;/span&gt;" style="ellipse;whiteSpace=wrap;html=1;fillColor=default;" parent="1" vertex="1">
          <mxGeometry x="1841.3490960451973" y="1157.0891338582676" width="132.93785310734464" height="57.08661417322835" as="geometry" />
        </mxCell>
        <mxCell id="Q-MH4VKtCi4xLxAhCX2A-5" value="" style="endArrow=none;html=1;rounded=0;entryX=1;entryY=0;entryDx=0;entryDy=0;exitX=0.5;exitY=0.5;exitDx=0;exitDy=0;exitPerimeter=0;" parent="1" source="0-PR4jEMZpkDc8mjO-xp-1" target="Q-MH4VKtCi4xLxAhCX2A-4" edge="1">
          <mxGeometry width="50" height="50" relative="1" as="geometry">
            <mxPoint x="491" y="1140" as="sourcePoint" />
            <mxPoint x="928" y="1557" as="targetPoint" />
          </mxGeometry>
        </mxCell>
        <mxCell id="Q-MH4VKtCi4xLxAhCX2A-7" value="&lt;span style=&quot;font-size: 15px;&quot;&gt;&lt;b&gt;assign task&lt;/b&gt;&lt;/span&gt;" style="ellipse;whiteSpace=wrap;html=1;fillColor=default;" parent="1" vertex="1">
          <mxGeometry x="1771.3490960451973" y="469.9991338582678" width="132.93785310734464" height="57.08661417322835" as="geometry" />
        </mxCell>
        <mxCell id="Q-MH4VKtCi4xLxAhCX2A-8" value="" style="endArrow=none;html=1;rounded=0;entryX=1;entryY=1;entryDx=0;entryDy=0;exitX=0.5;exitY=0.5;exitDx=0;exitDy=0;exitPerimeter=0;" parent="1" source="0-PR4jEMZpkDc8mjO-xp-1" target="Q-MH4VKtCi4xLxAhCX2A-7" edge="1">
          <mxGeometry width="50" height="50" relative="1" as="geometry">
            <mxPoint x="491" y="1140" as="sourcePoint" />
            <mxPoint x="725" y="1478" as="targetPoint" />
          </mxGeometry>
        </mxCell>
        <mxCell id="Q-MH4VKtCi4xLxAhCX2A-9" value="&lt;span style=&quot;font-size: 15px;&quot;&gt;&lt;b&gt;submit task&lt;/b&gt;&lt;/span&gt;" style="ellipse;whiteSpace=wrap;html=1;fillColor=default;" parent="1" vertex="1">
          <mxGeometry x="919.9934463276835" y="370.00055118110237" width="132.93785310734464" height="57.08661417322835" as="geometry" />
        </mxCell>
        <mxCell id="Q-MH4VKtCi4xLxAhCX2A-10" value="" style="endArrow=none;html=1;rounded=0;entryX=0;entryY=1;entryDx=0;entryDy=0;exitX=0.5;exitY=0.5;exitDx=0;exitDy=0;exitPerimeter=0;" parent="1" source="0-PR4jEMZpkDc8mjO-xp-3" target="Q-MH4VKtCi4xLxAhCX2A-9" edge="1">
          <mxGeometry width="50" height="50" relative="1" as="geometry">
            <mxPoint x="492" y="330" as="sourcePoint" />
            <mxPoint x="961" y="244" as="targetPoint" />
          </mxGeometry>
        </mxCell>
        <mxCell id="0-PR4jEMZpkDc8mjO-xp-50" value="&lt;font style=&quot;font-size: 15px;&quot;&gt;&lt;b&gt;view Feedback&lt;/b&gt;&lt;/font&gt;" style="ellipse;whiteSpace=wrap;html=1;fillColor=default;" parent="1" vertex="1">
          <mxGeometry x="1085.4593785310738" y="1100.0038582677166" width="132.93785310734464" height="57.08661417322835" as="geometry" />
        </mxCell>
        <mxCell id="zZkQHEaJ4sXHKALpFW-W-4" value="" style="endArrow=none;dashed=1;html=1;rounded=0;entryX=0.5;entryY=1;entryDx=0;entryDy=0;exitX=0.5;exitY=0;exitDx=0;exitDy=0;startArrow=open;startFill=0;strokeWidth=2;" edge="1" parent="1" source="0-PR4jEMZpkDc8mjO-xp-55" target="Q-MH4VKtCi4xLxAhCX2A-1">
          <mxGeometry width="50" height="50" relative="1" as="geometry">
            <mxPoint x="1414" y="793" as="sourcePoint" />
            <mxPoint x="1423" y="836" as="targetPoint" />
          </mxGeometry>
        </mxCell>
        <mxCell id="zZkQHEaJ4sXHKALpFW-W-5" value="&amp;lt;&amp;lt;Extends&amp;gt;&amp;gt;" style="edgeLabel;html=1;align=center;verticalAlign=middle;resizable=0;points=[];" vertex="1" connectable="0" parent="zZkQHEaJ4sXHKALpFW-W-4">
          <mxGeometry x="0.1275" relative="1" as="geometry">
            <mxPoint as="offset" />
          </mxGeometry>
        </mxCell>
        <mxCell id="zZkQHEaJ4sXHKALpFW-W-6" value="" style="endArrow=none;dashed=1;html=1;rounded=0;entryX=1;entryY=1;entryDx=0;entryDy=0;exitX=0;exitY=0.5;exitDx=0;exitDy=0;startArrow=open;startFill=0;strokeWidth=2;" edge="1" parent="1" source="0-PR4jEMZpkDc8mjO-xp-83" target="0-PR4jEMZpkDc8mjO-xp-49">
          <mxGeometry width="50" height="50" relative="1" as="geometry">
            <mxPoint x="1155" y="1566" as="sourcePoint" />
            <mxPoint x="1203" y="1613" as="targetPoint" />
          </mxGeometry>
        </mxCell>
        <mxCell id="zZkQHEaJ4sXHKALpFW-W-7" value="&amp;lt;&amp;lt;Extends&amp;gt;&amp;gt;" style="edgeLabel;html=1;align=center;verticalAlign=middle;resizable=0;points=[];" vertex="1" connectable="0" parent="zZkQHEaJ4sXHKALpFW-W-6">
          <mxGeometry x="0.1275" relative="1" as="geometry">
            <mxPoint as="offset" />
          </mxGeometry>
        </mxCell>
        <mxCell id="0-PR4jEMZpkDc8mjO-xp-84" value="&lt;font style=&quot;font-size: 15px;&quot;&gt;&lt;b&gt;add Grades&lt;/b&gt;&lt;/font&gt;" style="ellipse;whiteSpace=wrap;html=1;fillColor=default;" parent="1" vertex="1">
          <mxGeometry x="1429.9932768361582" y="1147.084251968504" width="132.93785310734464" height="57.08661417322835" as="geometry" />
        </mxCell>
        <mxCell id="zZkQHEaJ4sXHKALpFW-W-9" value="" style="endArrow=none;html=1;rounded=0;exitX=0.5;exitY=0.5;exitDx=0;exitDy=0;exitPerimeter=0;entryX=1;entryY=0.5;entryDx=0;entryDy=0;" edge="1" parent="1" source="0-PR4jEMZpkDc8mjO-xp-1" target="0-PR4jEMZpkDc8mjO-xp-63">
          <mxGeometry width="50" height="50" relative="1" as="geometry">
            <mxPoint x="2251" y="758" as="sourcePoint" />
            <mxPoint x="1351" y="1416" as="targetPoint" />
          </mxGeometry>
        </mxCell>
        <mxCell id="zZkQHEaJ4sXHKALpFW-W-11" value="" style="endArrow=none;html=1;rounded=0;entryX=1;entryY=0.5;entryDx=0;entryDy=0;exitX=0.5;exitY=0.5;exitDx=0;exitDy=0;exitPerimeter=0;" edge="1" parent="1" source="0-PR4jEMZpkDc8mjO-xp-1" target="0-PR4jEMZpkDc8mjO-xp-8">
          <mxGeometry width="50" height="50" relative="1" as="geometry">
            <mxPoint x="2251" y="758" as="sourcePoint" />
            <mxPoint x="1773" y="689" as="targetPoint" />
          </mxGeometry>
        </mxCell>
        <mxCell id="zZkQHEaJ4sXHKALpFW-W-12" value="" style="endArrow=none;html=1;rounded=0;entryX=0.5;entryY=0.5;entryDx=0;entryDy=0;exitX=1;exitY=1;exitDx=0;exitDy=0;entryPerimeter=0;" edge="1" parent="1" source="0-PR4jEMZpkDc8mjO-xp-22" target="0-PR4jEMZpkDc8mjO-xp-1">
          <mxGeometry width="50" height="50" relative="1" as="geometry">
            <mxPoint x="492" y="744" as="sourcePoint" />
            <mxPoint x="1428" y="362" as="targetPoint" />
          </mxGeometry>
        </mxCell>
        <mxCell id="zZkQHEaJ4sXHKALpFW-W-15" value="" style="endArrow=none;html=1;rounded=0;entryX=1;entryY=0.5;entryDx=0;entryDy=0;exitX=0.5;exitY=0.5;exitDx=0;exitDy=0;exitPerimeter=0;" edge="1" parent="1" source="0-PR4jEMZpkDc8mjO-xp-1" target="0-PR4jEMZpkDc8mjO-xp-17">
          <mxGeometry width="50" height="50" relative="1" as="geometry">
            <mxPoint x="492" y="744" as="sourcePoint" />
            <mxPoint x="1322" y="601" as="targetPoint" />
          </mxGeometry>
        </mxCell>
        <mxCell id="zZkQHEaJ4sXHKALpFW-W-16" value="" style="endArrow=none;html=1;rounded=0;exitX=0.5;exitY=0.5;exitDx=0;exitDy=0;exitPerimeter=0;entryX=0;entryY=0;entryDx=0;entryDy=0;" edge="1" parent="1" source="0-PR4jEMZpkDc8mjO-xp-3" target="0-PR4jEMZpkDc8mjO-xp-49">
          <mxGeometry width="50" height="50" relative="1" as="geometry">
            <mxPoint x="482" y="734" as="sourcePoint" />
            <mxPoint x="1297" y="1349" as="targetPoint" />
          </mxGeometry>
        </mxCell>
        <mxCell id="0-PR4jEMZpkDc8mjO-xp-49" value="&lt;font style=&quot;font-size: 15px;&quot;&gt;&lt;b&gt;view Grades&lt;/b&gt;&lt;/font&gt;" style="ellipse;whiteSpace=wrap;html=1;fillColor=default;" parent="1" vertex="1">
          <mxGeometry x="1052.933615819209" y="1182.0018897637794" width="132.93785310734464" height="57.08661417322835" as="geometry" />
        </mxCell>
      </root>
    </mxGraphModel>
  </diagram>
  <diagram id="C5RBs43oDa-KdzZeNtuy" name="Page-1">
    <mxGraphModel dx="4136" dy="1816" grid="1" gridSize="10" guides="1" tooltips="1" connect="1" arrows="1" fold="1" page="1" pageScale="1" pageWidth="200000" pageHeight="200000" math="0" shadow="0">
      <root>
        <mxCell id="WIyWlLk6GJQsqaUBKTNV-0" />
        <mxCell id="WIyWlLk6GJQsqaUBKTNV-1" parent="WIyWlLk6GJQsqaUBKTNV-0" />
        <mxCell id="o7aApu3GGf-8eQx43LeY-2" value="" style="rounded=0;whiteSpace=wrap;html=1;fillColor=none;" parent="WIyWlLk6GJQsqaUBKTNV-1" vertex="1">
          <mxGeometry x="660" y="270" width="1560" height="1270" as="geometry" />
        </mxCell>
        <mxCell id="EzpZir944E85K8thCq4u-3" value="&lt;span style=&quot;color: rgb(61, 71, 82); font-size: 20px; text-wrap: wrap;&quot;&gt;Instructor&lt;/span&gt;" style="shape=umlActor;verticalLabelPosition=bottom;verticalAlign=top;html=1;outlineConnect=0;fontSize=20;fontStyle=1" parent="WIyWlLk6GJQsqaUBKTNV-1" vertex="1">
          <mxGeometry x="570" y="1130" width="60" height="120" as="geometry" />
        </mxCell>
        <mxCell id="EzpZir944E85K8thCq4u-5" value="&lt;span style=&quot;color: rgb(61, 71, 82); font-size: 20px; text-wrap: wrap;&quot;&gt;Student&lt;/span&gt;" style="shape=umlActor;verticalLabelPosition=bottom;verticalAlign=top;html=1;outlineConnect=0;fontSize=20;fontStyle=1" parent="WIyWlLk6GJQsqaUBKTNV-1" vertex="1">
          <mxGeometry x="571" y="420" width="60" height="120" as="geometry" />
        </mxCell>
        <mxCell id="EzpZir944E85K8thCq4u-6" value="&lt;span style=&quot;color: rgb(61, 71, 82); font-size: 20px; text-wrap: wrap;&quot;&gt;User&lt;/span&gt;" style="shape=umlActor;verticalLabelPosition=bottom;verticalAlign=top;html=1;outlineConnect=0;fontSize=20;fontStyle=1" parent="WIyWlLk6GJQsqaUBKTNV-1" vertex="1">
          <mxGeometry x="571" y="783" width="60" height="120" as="geometry" />
        </mxCell>
        <mxCell id="EzpZir944E85K8thCq4u-7" value="&lt;span style=&quot;color: rgb(61, 71, 82); font-size: 20px; text-wrap: wrap;&quot;&gt;Admin&lt;/span&gt;" style="shape=umlActor;verticalLabelPosition=bottom;verticalAlign=top;html=1;outlineConnect=0;strokeWidth=2;fontSize=20;fontStyle=1" parent="WIyWlLk6GJQsqaUBKTNV-1" vertex="1">
          <mxGeometry x="2280" y="720" width="60" height="120" as="geometry" />
        </mxCell>
        <mxCell id="EzpZir944E85K8thCq4u-10" value="&lt;span style=&quot;color: rgb(61, 71, 82); font-size: 20px; text-wrap: wrap;&quot;&gt;AI&lt;/span&gt;" style="shape=umlActor;verticalLabelPosition=bottom;verticalAlign=top;html=1;outlineConnect=0;strokeWidth=2;fontSize=20;fontStyle=1" parent="WIyWlLk6GJQsqaUBKTNV-1" vertex="1">
          <mxGeometry x="2280" y="1080" width="60" height="120" as="geometry" />
        </mxCell>
        <mxCell id="EzpZir944E85K8thCq4u-12" value="" style="endArrow=none;html=1;rounded=0;exitX=0.5;exitY=0.5;exitDx=0;exitDy=0;exitPerimeter=0;entryX=0;entryY=1;entryDx=0;entryDy=0;" parent="WIyWlLk6GJQsqaUBKTNV-1" source="EzpZir944E85K8thCq4u-6" target="EzpZir944E85K8thCq4u-13" edge="1">
          <mxGeometry width="50" height="50" relative="1" as="geometry">
            <mxPoint x="1170" y="800" as="sourcePoint" />
            <mxPoint x="1220" y="750" as="targetPoint" />
          </mxGeometry>
        </mxCell>
        <mxCell id="EzpZir944E85K8thCq4u-13" value="&lt;font style=&quot;font-size: 15px;&quot;&gt;&lt;b&gt;View Courses&lt;/b&gt;&lt;/font&gt;" style="ellipse;whiteSpace=wrap;html=1;fillColor=default;" parent="WIyWlLk6GJQsqaUBKTNV-1" vertex="1">
          <mxGeometry x="1740" y="170" width="130" height="50" as="geometry" />
        </mxCell>
        <mxCell id="EzpZir944E85K8thCq4u-20" value="&lt;font style=&quot;font-size: 15px;&quot;&gt;&lt;b&gt;Login&lt;/b&gt;&lt;/font&gt;" style="ellipse;whiteSpace=wrap;html=1;fillColor=default;" parent="WIyWlLk6GJQsqaUBKTNV-1" vertex="1">
          <mxGeometry x="1180" y="850" width="130" height="50" as="geometry" />
        </mxCell>
        <mxCell id="EzpZir944E85K8thCq4u-21" value="&lt;font style=&quot;font-size: 15px;&quot;&gt;&lt;b&gt;Forgot password&lt;/b&gt;&lt;/font&gt;" style="ellipse;whiteSpace=wrap;html=1;fillColor=default;" parent="WIyWlLk6GJQsqaUBKTNV-1" vertex="1">
          <mxGeometry x="1255" y="750" width="130" height="50" as="geometry" />
        </mxCell>
        <mxCell id="EzpZir944E85K8thCq4u-22" value="&lt;font size=&quot;1&quot; style=&quot;&quot;&gt;&lt;b style=&quot;font-size: 14px;&quot;&gt;Authenticate User&lt;/b&gt;&lt;/font&gt;" style="ellipse;whiteSpace=wrap;html=1;fillColor=default;" parent="WIyWlLk6GJQsqaUBKTNV-1" vertex="1">
          <mxGeometry x="1450" y="870" width="130" height="50" as="geometry" />
        </mxCell>
        <mxCell id="EzpZir944E85K8thCq4u-23" value="" style="endArrow=none;html=1;rounded=0;entryX=0;entryY=0.5;entryDx=0;entryDy=0;exitX=0.5;exitY=0.5;exitDx=0;exitDy=0;exitPerimeter=0;" parent="WIyWlLk6GJQsqaUBKTNV-1" source="EzpZir944E85K8thCq4u-6" target="EzpZir944E85K8thCq4u-20" edge="1">
          <mxGeometry width="50" height="50" relative="1" as="geometry">
            <mxPoint x="766" y="878" as="sourcePoint" />
            <mxPoint x="1021" y="865" as="targetPoint" />
          </mxGeometry>
        </mxCell>
        <mxCell id="EzpZir944E85K8thCq4u-28" value="" style="endArrow=none;dashed=1;html=1;rounded=0;entryX=0.5;entryY=1;entryDx=0;entryDy=0;exitX=1;exitY=0;exitDx=0;exitDy=0;startArrow=open;startFill=0;strokeWidth=2;" parent="WIyWlLk6GJQsqaUBKTNV-1" source="EzpZir944E85K8thCq4u-20" target="EzpZir944E85K8thCq4u-21" edge="1">
          <mxGeometry width="50" height="50" relative="1" as="geometry">
            <mxPoint x="1380" y="920" as="sourcePoint" />
            <mxPoint x="1430" y="870" as="targetPoint" />
          </mxGeometry>
        </mxCell>
        <mxCell id="EzpZir944E85K8thCq4u-29" value="&amp;lt;&amp;lt;Extends&amp;gt;&amp;gt;" style="edgeLabel;html=1;align=center;verticalAlign=middle;resizable=0;points=[];" parent="EzpZir944E85K8thCq4u-28" vertex="1" connectable="0">
          <mxGeometry x="0.1275" relative="1" as="geometry">
            <mxPoint as="offset" />
          </mxGeometry>
        </mxCell>
        <mxCell id="EzpZir944E85K8thCq4u-30" value="" style="endArrow=open;dashed=1;html=1;rounded=0;entryX=0;entryY=0.5;entryDx=0;entryDy=0;exitX=1;exitY=1;exitDx=0;exitDy=0;strokeWidth=2;endFill=0;" parent="WIyWlLk6GJQsqaUBKTNV-1" source="EzpZir944E85K8thCq4u-20" target="EzpZir944E85K8thCq4u-22" edge="1">
          <mxGeometry width="50" height="50" relative="1" as="geometry">
            <mxPoint x="1350" y="910" as="sourcePoint" />
            <mxPoint x="1400" y="860" as="targetPoint" />
          </mxGeometry>
        </mxCell>
        <mxCell id="EzpZir944E85K8thCq4u-31" value="&amp;lt;&amp;lt;Include&amp;gt;&amp;gt;" style="edgeLabel;html=1;align=center;verticalAlign=middle;resizable=0;points=[];" parent="EzpZir944E85K8thCq4u-30" vertex="1" connectable="0">
          <mxGeometry x="-0.1541" relative="1" as="geometry">
            <mxPoint as="offset" />
          </mxGeometry>
        </mxCell>
        <mxCell id="EzpZir944E85K8thCq4u-32" value="" style="endArrow=none;html=1;rounded=0;entryX=1;entryY=0.5;entryDx=0;entryDy=0;exitX=0.5;exitY=0.5;exitDx=0;exitDy=0;exitPerimeter=0;" parent="WIyWlLk6GJQsqaUBKTNV-1" source="EzpZir944E85K8thCq4u-7" target="EzpZir944E85K8thCq4u-20" edge="1">
          <mxGeometry width="50" height="50" relative="1" as="geometry">
            <mxPoint x="776" y="888" as="sourcePoint" />
            <mxPoint x="1031" y="875" as="targetPoint" />
          </mxGeometry>
        </mxCell>
        <mxCell id="EzpZir944E85K8thCq4u-33" value="&lt;font style=&quot;font-size: 15px;&quot;&gt;&lt;b&gt;Register&lt;/b&gt;&lt;/font&gt;" style="ellipse;whiteSpace=wrap;html=1;fillColor=default;" parent="WIyWlLk6GJQsqaUBKTNV-1" vertex="1">
          <mxGeometry x="1130" y="910" width="130" height="50" as="geometry" />
        </mxCell>
        <mxCell id="EzpZir944E85K8thCq4u-34" value="" style="endArrow=none;html=1;rounded=0;entryX=0;entryY=0.5;entryDx=0;entryDy=0;exitX=0.5;exitY=0.5;exitDx=0;exitDy=0;exitPerimeter=0;" parent="WIyWlLk6GJQsqaUBKTNV-1" source="EzpZir944E85K8thCq4u-6" target="EzpZir944E85K8thCq4u-33" edge="1">
          <mxGeometry width="50" height="50" relative="1" as="geometry">
            <mxPoint x="776" y="888" as="sourcePoint" />
            <mxPoint x="1031" y="875" as="targetPoint" />
          </mxGeometry>
        </mxCell>
        <mxCell id="EzpZir944E85K8thCq4u-35" value="&lt;font style=&quot;font-size: 15px;&quot;&gt;&lt;b&gt;validate Information&lt;/b&gt;&lt;/font&gt;" style="ellipse;whiteSpace=wrap;html=1;fillColor=default;" parent="WIyWlLk6GJQsqaUBKTNV-1" vertex="1">
          <mxGeometry x="1360" y="930" width="130" height="50" as="geometry" />
        </mxCell>
        <mxCell id="EzpZir944E85K8thCq4u-37" value="" style="endArrow=open;dashed=1;html=1;rounded=0;entryX=0;entryY=0.5;entryDx=0;entryDy=0;exitX=1;exitY=0.5;exitDx=0;exitDy=0;strokeWidth=2;endFill=0;" parent="WIyWlLk6GJQsqaUBKTNV-1" source="EzpZir944E85K8thCq4u-33" target="EzpZir944E85K8thCq4u-35" edge="1">
          <mxGeometry width="50" height="50" relative="1" as="geometry">
            <mxPoint x="1301" y="903" as="sourcePoint" />
            <mxPoint x="1380" y="935" as="targetPoint" />
          </mxGeometry>
        </mxCell>
        <mxCell id="EzpZir944E85K8thCq4u-38" value="&amp;lt;&amp;lt;Include&amp;gt;&amp;gt;" style="edgeLabel;html=1;align=center;verticalAlign=middle;resizable=0;points=[];" parent="EzpZir944E85K8thCq4u-37" vertex="1" connectable="0">
          <mxGeometry x="-0.1541" relative="1" as="geometry">
            <mxPoint x="3" y="-3" as="offset" />
          </mxGeometry>
        </mxCell>
        <mxCell id="EzpZir944E85K8thCq4u-39" value="&lt;font style=&quot;font-size: 15px;&quot;&gt;&lt;b&gt;manage account&lt;/b&gt;&lt;/font&gt;" style="ellipse;whiteSpace=wrap;html=1;fillColor=default;" parent="WIyWlLk6GJQsqaUBKTNV-1" vertex="1">
          <mxGeometry x="1330" y="680" width="130" height="50" as="geometry" />
        </mxCell>
        <mxCell id="EzpZir944E85K8thCq4u-40" value="&lt;font style=&quot;font-size: 15px;&quot;&gt;&lt;b&gt;change profile picture&lt;/b&gt;&lt;/font&gt;" style="ellipse;whiteSpace=wrap;html=1;fillColor=default;" parent="WIyWlLk6GJQsqaUBKTNV-1" vertex="1">
          <mxGeometry x="1385" y="580" width="130" height="50" as="geometry" />
        </mxCell>
        <mxCell id="EzpZir944E85K8thCq4u-41" value="" style="endArrow=none;dashed=1;html=1;rounded=0;entryX=0.5;entryY=1;entryDx=0;entryDy=0;exitX=1;exitY=0;exitDx=0;exitDy=0;startArrow=open;startFill=0;strokeWidth=2;" parent="WIyWlLk6GJQsqaUBKTNV-1" source="EzpZir944E85K8thCq4u-39" target="EzpZir944E85K8thCq4u-40" edge="1">
          <mxGeometry width="50" height="50" relative="1" as="geometry">
            <mxPoint x="1271" y="867" as="sourcePoint" />
            <mxPoint x="1350" y="805" as="targetPoint" />
          </mxGeometry>
        </mxCell>
        <mxCell id="EzpZir944E85K8thCq4u-42" value="&amp;lt;&amp;lt;Extends&amp;gt;&amp;gt;" style="edgeLabel;html=1;align=center;verticalAlign=middle;resizable=0;points=[];" parent="EzpZir944E85K8thCq4u-41" vertex="1" connectable="0">
          <mxGeometry x="0.1275" relative="1" as="geometry">
            <mxPoint as="offset" />
          </mxGeometry>
        </mxCell>
        <mxCell id="EzpZir944E85K8thCq4u-44" value="" style="endArrow=none;html=1;rounded=0;entryX=0;entryY=1;entryDx=0;entryDy=0;exitX=0.5;exitY=0.5;exitDx=0;exitDy=0;exitPerimeter=0;" parent="WIyWlLk6GJQsqaUBKTNV-1" source="EzpZir944E85K8thCq4u-6" target="EzpZir944E85K8thCq4u-39" edge="1">
          <mxGeometry width="50" height="50" relative="1" as="geometry">
            <mxPoint x="730" y="888" as="sourcePoint" />
            <mxPoint x="1130" y="725" as="targetPoint" />
          </mxGeometry>
        </mxCell>
        <mxCell id="EzpZir944E85K8thCq4u-46" value="" style="endArrow=none;html=1;rounded=0;entryX=1;entryY=0.5;entryDx=0;entryDy=0;exitX=0.5;exitY=0.5;exitDx=0;exitDy=0;exitPerimeter=0;" parent="WIyWlLk6GJQsqaUBKTNV-1" source="EzpZir944E85K8thCq4u-7" target="EzpZir944E85K8thCq4u-39" edge="1">
          <mxGeometry width="50" height="50" relative="1" as="geometry">
            <mxPoint x="775" y="888" as="sourcePoint" />
            <mxPoint x="1349" y="723" as="targetPoint" />
          </mxGeometry>
        </mxCell>
        <mxCell id="EzpZir944E85K8thCq4u-47" value="&lt;span style=&quot;font-size: 15px;&quot;&gt;&lt;b&gt;change Language&lt;/b&gt;&lt;/span&gt;" style="ellipse;whiteSpace=wrap;html=1;fillColor=default;" parent="WIyWlLk6GJQsqaUBKTNV-1" vertex="1">
          <mxGeometry x="1240" y="580" width="130" height="50" as="geometry" />
        </mxCell>
        <mxCell id="EzpZir944E85K8thCq4u-48" value="" style="endArrow=none;dashed=1;html=1;rounded=0;entryX=0.5;entryY=1;entryDx=0;entryDy=0;exitX=0;exitY=0;exitDx=0;exitDy=0;startArrow=open;startFill=0;strokeWidth=2;" parent="WIyWlLk6GJQsqaUBKTNV-1" source="EzpZir944E85K8thCq4u-39" target="EzpZir944E85K8thCq4u-47" edge="1">
          <mxGeometry width="50" height="50" relative="1" as="geometry">
            <mxPoint x="1442" y="688" as="sourcePoint" />
            <mxPoint x="1508" y="642" as="targetPoint" />
          </mxGeometry>
        </mxCell>
        <mxCell id="EzpZir944E85K8thCq4u-49" value="&amp;lt;&amp;lt;Extends&amp;gt;&amp;gt;" style="edgeLabel;html=1;align=center;verticalAlign=middle;resizable=0;points=[];" parent="EzpZir944E85K8thCq4u-48" vertex="1" connectable="0">
          <mxGeometry x="0.1275" relative="1" as="geometry">
            <mxPoint as="offset" />
          </mxGeometry>
        </mxCell>
        <mxCell id="EzpZir944E85K8thCq4u-50" value="&lt;span style=&quot;font-size: 15px;&quot;&gt;&lt;b&gt;Log out&lt;/b&gt;&lt;/span&gt;" style="ellipse;whiteSpace=wrap;html=1;fillColor=default;" parent="WIyWlLk6GJQsqaUBKTNV-1" vertex="1">
          <mxGeometry x="1430" y="770" width="130" height="50" as="geometry" />
        </mxCell>
        <mxCell id="EzpZir944E85K8thCq4u-51" value="" style="endArrow=none;dashed=1;html=1;rounded=0;entryX=0;entryY=0;entryDx=0;entryDy=0;exitX=0.5;exitY=1;exitDx=0;exitDy=0;startArrow=open;startFill=0;strokeWidth=2;" parent="WIyWlLk6GJQsqaUBKTNV-1" source="EzpZir944E85K8thCq4u-39" target="EzpZir944E85K8thCq4u-50" edge="1">
          <mxGeometry width="50" height="50" relative="1" as="geometry">
            <mxPoint x="1395" y="680" as="sourcePoint" />
            <mxPoint x="1395" y="630" as="targetPoint" />
          </mxGeometry>
        </mxCell>
        <mxCell id="EzpZir944E85K8thCq4u-52" value="&amp;lt;&amp;lt;Extends&amp;gt;&amp;gt;" style="edgeLabel;html=1;align=center;verticalAlign=middle;resizable=0;points=[];" parent="EzpZir944E85K8thCq4u-51" vertex="1" connectable="0">
          <mxGeometry x="0.1275" relative="1" as="geometry">
            <mxPoint as="offset" />
          </mxGeometry>
        </mxCell>
        <mxCell id="EzpZir944E85K8thCq4u-53" value="&lt;font style=&quot;font-size: 15px;&quot;&gt;&lt;b&gt;Contact support&lt;/b&gt;&lt;/font&gt;" style="ellipse;whiteSpace=wrap;html=1;fillColor=default;" parent="WIyWlLk6GJQsqaUBKTNV-1" vertex="1">
          <mxGeometry x="1340" y="1000" width="130" height="50" as="geometry" />
        </mxCell>
        <mxCell id="EzpZir944E85K8thCq4u-54" value="" style="endArrow=none;html=1;rounded=0;entryX=0;entryY=0.5;entryDx=0;entryDy=0;exitX=0.5;exitY=0.5;exitDx=0;exitDy=0;exitPerimeter=0;" parent="WIyWlLk6GJQsqaUBKTNV-1" source="EzpZir944E85K8thCq4u-6" target="EzpZir944E85K8thCq4u-53" edge="1">
          <mxGeometry width="50" height="50" relative="1" as="geometry">
            <mxPoint x="775" y="888" as="sourcePoint" />
            <mxPoint x="1170" y="995" as="targetPoint" />
          </mxGeometry>
        </mxCell>
        <mxCell id="EzpZir944E85K8thCq4u-55" value="" style="endArrow=none;html=1;rounded=0;entryX=0.5;entryY=0.5;entryDx=0;entryDy=0;exitX=1;exitY=0;exitDx=0;exitDy=0;entryPerimeter=0;" parent="WIyWlLk6GJQsqaUBKTNV-1" source="EzpZir944E85K8thCq4u-53" target="EzpZir944E85K8thCq4u-7" edge="1">
          <mxGeometry width="50" height="50" relative="1" as="geometry">
            <mxPoint x="775" y="888" as="sourcePoint" />
            <mxPoint x="1450" y="1125" as="targetPoint" />
          </mxGeometry>
        </mxCell>
        <mxCell id="EzpZir944E85K8thCq4u-56" value="" style="endArrow=none;html=1;rounded=0;entryX=0.5;entryY=0.5;entryDx=0;entryDy=0;exitX=1;exitY=0.5;exitDx=0;exitDy=0;entryPerimeter=0;" parent="WIyWlLk6GJQsqaUBKTNV-1" source="EzpZir944E85K8thCq4u-53" target="EzpZir944E85K8thCq4u-10" edge="1">
          <mxGeometry width="50" height="50" relative="1" as="geometry">
            <mxPoint x="1562" y="1108" as="sourcePoint" />
            <mxPoint x="1975" y="745" as="targetPoint" />
          </mxGeometry>
        </mxCell>
        <mxCell id="EzpZir944E85K8thCq4u-57" value="&lt;font style=&quot;font-size: 15px;&quot;&gt;&lt;b&gt;manage Courses&lt;/b&gt;&lt;/font&gt;" style="ellipse;whiteSpace=wrap;html=1;fillColor=default;" parent="WIyWlLk6GJQsqaUBKTNV-1" vertex="1">
          <mxGeometry x="2050" y="190" width="130" height="50" as="geometry" />
        </mxCell>
        <mxCell id="EzpZir944E85K8thCq4u-58" value="" style="endArrow=none;html=1;rounded=0;exitX=0.5;exitY=0.5;exitDx=0;exitDy=0;exitPerimeter=0;entryX=1;entryY=1;entryDx=0;entryDy=0;" parent="WIyWlLk6GJQsqaUBKTNV-1" source="EzpZir944E85K8thCq4u-7" target="EzpZir944E85K8thCq4u-57" edge="1">
          <mxGeometry width="50" height="50" relative="1" as="geometry">
            <mxPoint x="775" y="888" as="sourcePoint" />
            <mxPoint x="1139" y="693" as="targetPoint" />
          </mxGeometry>
        </mxCell>
        <mxCell id="EzpZir944E85K8thCq4u-59" value="&lt;font style=&quot;&quot;&gt;&lt;span style=&quot;font-size: 15px;&quot;&gt;&lt;b&gt;Delete&amp;nbsp;&lt;/b&gt;&lt;/span&gt;&lt;b style=&quot;font-size: 15px;&quot;&gt;Courses&lt;/b&gt;&lt;/font&gt;" style="ellipse;whiteSpace=wrap;html=1;fillColor=default;" parent="WIyWlLk6GJQsqaUBKTNV-1" vertex="1">
          <mxGeometry x="2140" y="90" width="130" height="50" as="geometry" />
        </mxCell>
        <mxCell id="EzpZir944E85K8thCq4u-60" value="&lt;font style=&quot;font-size: 15px;&quot;&gt;&lt;b&gt;Add Courses&lt;/b&gt;&lt;/font&gt;" style="ellipse;whiteSpace=wrap;html=1;fillColor=default;" parent="WIyWlLk6GJQsqaUBKTNV-1" vertex="1">
          <mxGeometry x="1920" y="80" width="130" height="50" as="geometry" />
        </mxCell>
        <mxCell id="EzpZir944E85K8thCq4u-61" value="" style="endArrow=none;dashed=1;html=1;rounded=0;entryX=1;entryY=1;entryDx=0;entryDy=0;exitX=0;exitY=0;exitDx=0;exitDy=0;startArrow=open;startFill=0;strokeWidth=2;" parent="WIyWlLk6GJQsqaUBKTNV-1" source="EzpZir944E85K8thCq4u-57" target="EzpZir944E85K8thCq4u-60" edge="1">
          <mxGeometry width="50" height="50" relative="1" as="geometry">
            <mxPoint x="1441" y="687" as="sourcePoint" />
            <mxPoint x="1509" y="643" as="targetPoint" />
          </mxGeometry>
        </mxCell>
        <mxCell id="EzpZir944E85K8thCq4u-62" value="&amp;lt;&amp;lt;Extends&amp;gt;&amp;gt;" style="edgeLabel;html=1;align=center;verticalAlign=middle;resizable=0;points=[];" parent="EzpZir944E85K8thCq4u-61" vertex="1" connectable="0">
          <mxGeometry x="0.1275" relative="1" as="geometry">
            <mxPoint as="offset" />
          </mxGeometry>
        </mxCell>
        <mxCell id="EzpZir944E85K8thCq4u-63" value="" style="endArrow=none;dashed=1;html=1;rounded=0;entryX=0.5;entryY=1;entryDx=0;entryDy=0;exitX=0.5;exitY=0;exitDx=0;exitDy=0;startArrow=open;startFill=0;strokeWidth=2;" parent="WIyWlLk6GJQsqaUBKTNV-1" source="EzpZir944E85K8thCq4u-57" target="EzpZir944E85K8thCq4u-59" edge="1">
          <mxGeometry width="50" height="50" relative="1" as="geometry">
            <mxPoint x="1690" y="625" as="sourcePoint" />
            <mxPoint x="1651" y="563" as="targetPoint" />
          </mxGeometry>
        </mxCell>
        <mxCell id="EzpZir944E85K8thCq4u-64" value="&amp;lt;&amp;lt;Extends&amp;gt;&amp;gt;" style="edgeLabel;html=1;align=center;verticalAlign=middle;resizable=0;points=[];" parent="EzpZir944E85K8thCq4u-63" vertex="1" connectable="0">
          <mxGeometry x="0.1275" relative="1" as="geometry">
            <mxPoint as="offset" />
          </mxGeometry>
        </mxCell>
        <mxCell id="EzpZir944E85K8thCq4u-65" value="&lt;font style=&quot;&quot;&gt;&lt;span style=&quot;font-size: 15px;&quot;&gt;&lt;b&gt;Update&amp;nbsp;&lt;/b&gt;&lt;/span&gt;&lt;b style=&quot;font-size: 15px;&quot;&gt;Courses&lt;/b&gt;&lt;/font&gt;" style="ellipse;whiteSpace=wrap;html=1;fillColor=default;" parent="WIyWlLk6GJQsqaUBKTNV-1" vertex="1">
          <mxGeometry x="1920" y="300" width="130" height="50" as="geometry" />
        </mxCell>
        <mxCell id="EzpZir944E85K8thCq4u-66" value="" style="endArrow=none;dashed=1;html=1;rounded=0;entryX=1;entryY=0;entryDx=0;entryDy=0;exitX=0;exitY=1;exitDx=0;exitDy=0;startArrow=open;startFill=0;strokeWidth=2;" parent="WIyWlLk6GJQsqaUBKTNV-1" source="EzpZir944E85K8thCq4u-57" target="EzpZir944E85K8thCq4u-65" edge="1">
          <mxGeometry width="50" height="50" relative="1" as="geometry">
            <mxPoint x="1755" y="600" as="sourcePoint" />
            <mxPoint x="1745" y="530" as="targetPoint" />
          </mxGeometry>
        </mxCell>
        <mxCell id="EzpZir944E85K8thCq4u-67" value="&amp;lt;&amp;lt;Extends&amp;gt;&amp;gt;" style="edgeLabel;html=1;align=center;verticalAlign=middle;resizable=0;points=[];" parent="EzpZir944E85K8thCq4u-66" vertex="1" connectable="0">
          <mxGeometry x="0.1275" relative="1" as="geometry">
            <mxPoint x="2" y="-1" as="offset" />
          </mxGeometry>
        </mxCell>
        <mxCell id="EzpZir944E85K8thCq4u-68" value="&lt;font style=&quot;font-size: 15px;&quot;&gt;&lt;b&gt;view Grades&lt;/b&gt;&lt;/font&gt;" style="ellipse;whiteSpace=wrap;html=1;fillColor=default;" parent="WIyWlLk6GJQsqaUBKTNV-1" vertex="1">
          <mxGeometry x="910" y="1010" width="130" height="50" as="geometry" />
        </mxCell>
        <mxCell id="EzpZir944E85K8thCq4u-69" value="&lt;font style=&quot;font-size: 15px;&quot;&gt;&lt;b&gt;view Feedback&lt;/b&gt;&lt;/font&gt;" style="ellipse;whiteSpace=wrap;html=1;fillColor=default;" parent="WIyWlLk6GJQsqaUBKTNV-1" vertex="1">
          <mxGeometry x="1120" y="1040" width="130" height="50" as="geometry" />
        </mxCell>
        <mxCell id="EzpZir944E85K8thCq4u-70" value="" style="endArrow=none;html=1;rounded=0;entryX=0;entryY=0;entryDx=0;entryDy=0;exitX=0.5;exitY=0.5;exitDx=0;exitDy=0;exitPerimeter=0;" parent="WIyWlLk6GJQsqaUBKTNV-1" source="EzpZir944E85K8thCq4u-6" target="EzpZir944E85K8thCq4u-76" edge="1">
          <mxGeometry width="50" height="50" relative="1" as="geometry">
            <mxPoint x="775" y="888" as="sourcePoint" />
            <mxPoint x="1450" y="1125" as="targetPoint" />
          </mxGeometry>
        </mxCell>
        <mxCell id="EzpZir944E85K8thCq4u-71" value="" style="endArrow=none;html=1;rounded=0;entryX=0;entryY=0;entryDx=0;entryDy=0;exitX=0.5;exitY=0.5;exitDx=0;exitDy=0;exitPerimeter=0;" parent="WIyWlLk6GJQsqaUBKTNV-1" source="EzpZir944E85K8thCq4u-6" target="EzpZir944E85K8thCq4u-69" edge="1">
          <mxGeometry width="50" height="50" relative="1" as="geometry">
            <mxPoint x="775" y="888" as="sourcePoint" />
            <mxPoint x="1319" y="1127" as="targetPoint" />
          </mxGeometry>
        </mxCell>
        <mxCell id="EzpZir944E85K8thCq4u-72" value="&lt;span style=&quot;font-size: 15px;&quot;&gt;&lt;b&gt;Upload Code&lt;/b&gt;&lt;/span&gt;" style="ellipse;whiteSpace=wrap;html=1;fillColor=default;" parent="WIyWlLk6GJQsqaUBKTNV-1" vertex="1">
          <mxGeometry x="1060" y="380" width="130" height="50" as="geometry" />
        </mxCell>
        <mxCell id="EzpZir944E85K8thCq4u-73" value="" style="endArrow=none;html=1;rounded=0;entryX=0;entryY=0.5;entryDx=0;entryDy=0;exitX=0.5;exitY=0.5;exitDx=0;exitDy=0;exitPerimeter=0;" parent="WIyWlLk6GJQsqaUBKTNV-1" source="EzpZir944E85K8thCq4u-5" target="EzpZir944E85K8thCq4u-72" edge="1">
          <mxGeometry width="50" height="50" relative="1" as="geometry">
            <mxPoint x="1370" y="1100" as="sourcePoint" />
            <mxPoint x="1420" y="1050" as="targetPoint" />
          </mxGeometry>
        </mxCell>
        <mxCell id="EzpZir944E85K8thCq4u-76" value="&lt;font style=&quot;font-size: 15px;&quot;&gt;&lt;b&gt;manage messages&lt;/b&gt;&lt;/font&gt;" style="ellipse;whiteSpace=wrap;html=1;fillColor=default;" parent="WIyWlLk6GJQsqaUBKTNV-1" vertex="1">
          <mxGeometry x="1270" y="1050" width="130" height="50" as="geometry" />
        </mxCell>
        <mxCell id="EzpZir944E85K8thCq4u-77" value="&lt;font style=&quot;font-size: 15px;&quot;&gt;&lt;b&gt;send messages&lt;/b&gt;&lt;/font&gt;" style="ellipse;whiteSpace=wrap;html=1;fillColor=default;" parent="WIyWlLk6GJQsqaUBKTNV-1" vertex="1">
          <mxGeometry x="1410" y="1120" width="130" height="50" as="geometry" />
        </mxCell>
        <mxCell id="EzpZir944E85K8thCq4u-78" value="&lt;font style=&quot;font-size: 15px;&quot;&gt;&lt;b&gt;view messages&lt;/b&gt;&lt;/font&gt;" style="ellipse;whiteSpace=wrap;html=1;fillColor=default;" parent="WIyWlLk6GJQsqaUBKTNV-1" vertex="1">
          <mxGeometry x="1500" y="1065" width="130" height="50" as="geometry" />
        </mxCell>
        <mxCell id="EzpZir944E85K8thCq4u-79" value="" style="endArrow=none;dashed=1;html=1;rounded=0;entryX=0;entryY=0.5;entryDx=0;entryDy=0;exitX=1;exitY=0.5;exitDx=0;exitDy=0;startArrow=open;startFill=0;strokeWidth=2;" parent="WIyWlLk6GJQsqaUBKTNV-1" source="EzpZir944E85K8thCq4u-76" target="EzpZir944E85K8thCq4u-78" edge="1">
          <mxGeometry width="50" height="50" relative="1" as="geometry">
            <mxPoint x="1301" y="867" as="sourcePoint" />
            <mxPoint x="1330" y="810" as="targetPoint" />
          </mxGeometry>
        </mxCell>
        <mxCell id="EzpZir944E85K8thCq4u-80" value="&amp;lt;&amp;lt;Extends&amp;gt;&amp;gt;" style="edgeLabel;html=1;align=center;verticalAlign=middle;resizable=0;points=[];" parent="EzpZir944E85K8thCq4u-79" vertex="1" connectable="0">
          <mxGeometry x="0.1275" relative="1" as="geometry">
            <mxPoint as="offset" />
          </mxGeometry>
        </mxCell>
        <mxCell id="EzpZir944E85K8thCq4u-81" value="" style="endArrow=none;dashed=1;html=1;rounded=0;entryX=0;entryY=0.5;entryDx=0;entryDy=0;exitX=0.5;exitY=1;exitDx=0;exitDy=0;startArrow=open;startFill=0;strokeWidth=2;" parent="WIyWlLk6GJQsqaUBKTNV-1" source="EzpZir944E85K8thCq4u-76" target="EzpZir944E85K8thCq4u-77" edge="1">
          <mxGeometry width="50" height="50" relative="1" as="geometry">
            <mxPoint x="1410" y="1085" as="sourcePoint" />
            <mxPoint x="1499" y="1107" as="targetPoint" />
          </mxGeometry>
        </mxCell>
        <mxCell id="EzpZir944E85K8thCq4u-82" value="&amp;lt;&amp;lt;Extends&amp;gt;&amp;gt;" style="edgeLabel;html=1;align=center;verticalAlign=middle;resizable=0;points=[];" parent="EzpZir944E85K8thCq4u-81" vertex="1" connectable="0">
          <mxGeometry x="0.1275" relative="1" as="geometry">
            <mxPoint as="offset" />
          </mxGeometry>
        </mxCell>
        <mxCell id="EzpZir944E85K8thCq4u-84" value="" style="endArrow=none;html=1;rounded=0;entryX=0;entryY=0;entryDx=0;entryDy=0;exitX=0.5;exitY=0.5;exitDx=0;exitDy=0;exitPerimeter=0;" parent="WIyWlLk6GJQsqaUBKTNV-1" source="EzpZir944E85K8thCq4u-6" target="EzpZir944E85K8thCq4u-68" edge="1">
          <mxGeometry width="50" height="50" relative="1" as="geometry">
            <mxPoint x="625" y="833" as="sourcePoint" />
            <mxPoint x="1148" y="1058" as="targetPoint" />
          </mxGeometry>
        </mxCell>
        <mxCell id="EzpZir944E85K8thCq4u-85" value="&lt;font style=&quot;font-size: 15px;&quot;&gt;&lt;b&gt;View Tasks&lt;/b&gt;&lt;/font&gt;" style="ellipse;whiteSpace=wrap;html=1;fillColor=default;" parent="WIyWlLk6GJQsqaUBKTNV-1" vertex="1">
          <mxGeometry x="870" y="590" width="130" height="50" as="geometry" />
        </mxCell>
        <mxCell id="EzpZir944E85K8thCq4u-86" value="" style="endArrow=none;html=1;rounded=0;exitX=0.5;exitY=0.5;exitDx=0;exitDy=0;exitPerimeter=0;entryX=0;entryY=1;entryDx=0;entryDy=0;" parent="WIyWlLk6GJQsqaUBKTNV-1" source="EzpZir944E85K8thCq4u-6" target="EzpZir944E85K8thCq4u-85" edge="1">
          <mxGeometry width="50" height="50" relative="1" as="geometry">
            <mxPoint x="625" y="833" as="sourcePoint" />
            <mxPoint x="1188" y="722" as="targetPoint" />
          </mxGeometry>
        </mxCell>
        <mxCell id="EzpZir944E85K8thCq4u-87" value="&lt;font style=&quot;font-size: 15px;&quot;&gt;&lt;b&gt;View Recent Tasks&lt;/b&gt;&lt;/font&gt;" style="ellipse;whiteSpace=wrap;html=1;fillColor=default;" parent="WIyWlLk6GJQsqaUBKTNV-1" vertex="1">
          <mxGeometry x="840" y="500" width="130" height="50" as="geometry" />
        </mxCell>
        <mxCell id="EzpZir944E85K8thCq4u-88" value="&lt;font style=&quot;font-size: 15px;&quot;&gt;&lt;b&gt;View missed Tasks&lt;/b&gt;&lt;/font&gt;" style="ellipse;whiteSpace=wrap;html=1;fillColor=default;" parent="WIyWlLk6GJQsqaUBKTNV-1" vertex="1">
          <mxGeometry x="1000" y="510" width="130" height="50" as="geometry" />
        </mxCell>
        <mxCell id="EzpZir944E85K8thCq4u-89" value="&lt;font style=&quot;&quot;&gt;&lt;b style=&quot;font-size: 15px;&quot;&gt;View&lt;/b&gt;&lt;/font&gt;&lt;div&gt;&lt;font style=&quot;&quot;&gt;&lt;span style=&quot;font-size: 15px;&quot;&gt;&lt;b&gt;completed&amp;nbsp;&lt;/b&gt;&lt;/span&gt;&lt;b style=&quot;font-size: 15px;&quot;&gt;Tasks&lt;/b&gt;&lt;/font&gt;&lt;/div&gt;" style="ellipse;whiteSpace=wrap;html=1;fillColor=default;" parent="WIyWlLk6GJQsqaUBKTNV-1" vertex="1">
          <mxGeometry x="680" y="560" width="130" height="50" as="geometry" />
        </mxCell>
        <mxCell id="EzpZir944E85K8thCq4u-90" value="" style="endArrow=none;dashed=1;html=1;rounded=0;entryX=0;entryY=1;entryDx=0;entryDy=0;exitX=1;exitY=0;exitDx=0;exitDy=0;startArrow=open;startFill=0;strokeWidth=2;" parent="WIyWlLk6GJQsqaUBKTNV-1" source="EzpZir944E85K8thCq4u-85" target="EzpZir944E85K8thCq4u-88" edge="1">
          <mxGeometry width="50" height="50" relative="1" as="geometry">
            <mxPoint x="1309" y="617" as="sourcePoint" />
            <mxPoint x="1265" y="560" as="targetPoint" />
          </mxGeometry>
        </mxCell>
        <mxCell id="EzpZir944E85K8thCq4u-91" value="&amp;lt;&amp;lt;Extends&amp;gt;&amp;gt;" style="edgeLabel;html=1;align=center;verticalAlign=middle;resizable=0;points=[];" parent="EzpZir944E85K8thCq4u-90" vertex="1" connectable="0">
          <mxGeometry x="0.1275" relative="1" as="geometry">
            <mxPoint as="offset" />
          </mxGeometry>
        </mxCell>
        <mxCell id="EzpZir944E85K8thCq4u-92" value="" style="endArrow=none;dashed=1;html=1;rounded=0;entryX=0.5;entryY=1;entryDx=0;entryDy=0;exitX=0.5;exitY=0;exitDx=0;exitDy=0;startArrow=open;startFill=0;strokeWidth=2;" parent="WIyWlLk6GJQsqaUBKTNV-1" source="EzpZir944E85K8thCq4u-85" target="EzpZir944E85K8thCq4u-87" edge="1">
          <mxGeometry width="50" height="50" relative="1" as="geometry">
            <mxPoint x="991" y="607" as="sourcePoint" />
            <mxPoint x="1029" y="563" as="targetPoint" />
          </mxGeometry>
        </mxCell>
        <mxCell id="EzpZir944E85K8thCq4u-93" value="&amp;lt;&amp;lt;Extends&amp;gt;&amp;gt;" style="edgeLabel;html=1;align=center;verticalAlign=middle;resizable=0;points=[];" parent="EzpZir944E85K8thCq4u-92" vertex="1" connectable="0">
          <mxGeometry x="0.1275" relative="1" as="geometry">
            <mxPoint as="offset" />
          </mxGeometry>
        </mxCell>
        <mxCell id="EzpZir944E85K8thCq4u-94" value="" style="endArrow=none;dashed=1;html=1;rounded=0;entryX=1;entryY=0.5;entryDx=0;entryDy=0;exitX=0;exitY=0.5;exitDx=0;exitDy=0;startArrow=open;startFill=0;strokeWidth=2;" parent="WIyWlLk6GJQsqaUBKTNV-1" source="EzpZir944E85K8thCq4u-85" target="EzpZir944E85K8thCq4u-89" edge="1">
          <mxGeometry width="50" height="50" relative="1" as="geometry">
            <mxPoint x="945" y="600" as="sourcePoint" />
            <mxPoint x="915" y="560" as="targetPoint" />
          </mxGeometry>
        </mxCell>
        <mxCell id="EzpZir944E85K8thCq4u-95" value="&amp;lt;&amp;lt;Extends&amp;gt;&amp;gt;" style="edgeLabel;html=1;align=center;verticalAlign=middle;resizable=0;points=[];" parent="EzpZir944E85K8thCq4u-94" vertex="1" connectable="0">
          <mxGeometry x="0.1275" relative="1" as="geometry">
            <mxPoint as="offset" />
          </mxGeometry>
        </mxCell>
        <mxCell id="EzpZir944E85K8thCq4u-96" value="&lt;font style=&quot;font-size: 15px;&quot;&gt;&lt;b&gt;manage feedback&lt;/b&gt;&lt;/font&gt;" style="ellipse;whiteSpace=wrap;html=1;fillColor=default;" parent="WIyWlLk6GJQsqaUBKTNV-1" vertex="1">
          <mxGeometry x="1070" y="1170" width="130" height="50" as="geometry" />
        </mxCell>
        <mxCell id="EzpZir944E85K8thCq4u-97" value="&lt;font style=&quot;font-size: 15px;&quot;&gt;&lt;b&gt;delete feedback&lt;/b&gt;&lt;/font&gt;" style="ellipse;whiteSpace=wrap;html=1;fillColor=default;" parent="WIyWlLk6GJQsqaUBKTNV-1" vertex="1">
          <mxGeometry x="1180" y="1240" width="130" height="50" as="geometry" />
        </mxCell>
        <mxCell id="EzpZir944E85K8thCq4u-98" value="&lt;font style=&quot;font-size: 15px;&quot;&gt;&lt;b&gt;add feedback&lt;/b&gt;&lt;/font&gt;" style="ellipse;whiteSpace=wrap;html=1;fillColor=default;" parent="WIyWlLk6GJQsqaUBKTNV-1" vertex="1">
          <mxGeometry x="1300" y="1190" width="130" height="50" as="geometry" />
        </mxCell>
        <mxCell id="EzpZir944E85K8thCq4u-99" value="" style="endArrow=none;dashed=1;html=1;rounded=0;entryX=0;entryY=0.5;entryDx=0;entryDy=0;exitX=1;exitY=0.5;exitDx=0;exitDy=0;startArrow=open;startFill=0;strokeWidth=2;" parent="WIyWlLk6GJQsqaUBKTNV-1" source="EzpZir944E85K8thCq4u-96" target="EzpZir944E85K8thCq4u-98" edge="1">
          <mxGeometry width="50" height="50" relative="1" as="geometry">
            <mxPoint x="1345" y="1110" as="sourcePoint" />
            <mxPoint x="1420" y="1155" as="targetPoint" />
          </mxGeometry>
        </mxCell>
        <mxCell id="EzpZir944E85K8thCq4u-100" value="&amp;lt;&amp;lt;Extends&amp;gt;&amp;gt;" style="edgeLabel;html=1;align=center;verticalAlign=middle;resizable=0;points=[];" parent="EzpZir944E85K8thCq4u-99" vertex="1" connectable="0">
          <mxGeometry x="0.1275" relative="1" as="geometry">
            <mxPoint as="offset" />
          </mxGeometry>
        </mxCell>
        <mxCell id="EzpZir944E85K8thCq4u-101" value="" style="endArrow=none;dashed=1;html=1;rounded=0;entryX=0;entryY=0;entryDx=0;entryDy=0;exitX=0.5;exitY=1;exitDx=0;exitDy=0;startArrow=open;startFill=0;strokeWidth=2;" parent="WIyWlLk6GJQsqaUBKTNV-1" source="EzpZir944E85K8thCq4u-96" target="EzpZir944E85K8thCq4u-97" edge="1">
          <mxGeometry width="50" height="50" relative="1" as="geometry">
            <mxPoint x="1210" y="1205" as="sourcePoint" />
            <mxPoint x="1290" y="1235" as="targetPoint" />
          </mxGeometry>
        </mxCell>
        <mxCell id="EzpZir944E85K8thCq4u-102" value="&amp;lt;&amp;lt;Extends&amp;gt;&amp;gt;" style="edgeLabel;html=1;align=center;verticalAlign=middle;resizable=0;points=[];" parent="EzpZir944E85K8thCq4u-101" vertex="1" connectable="0">
          <mxGeometry x="0.1275" relative="1" as="geometry">
            <mxPoint as="offset" />
          </mxGeometry>
        </mxCell>
        <mxCell id="EzpZir944E85K8thCq4u-103" value="" style="endArrow=none;html=1;rounded=0;entryX=0;entryY=0.5;entryDx=0;entryDy=0;exitX=0.5;exitY=0.5;exitDx=0;exitDy=0;exitPerimeter=0;" parent="WIyWlLk6GJQsqaUBKTNV-1" source="EzpZir944E85K8thCq4u-3" target="EzpZir944E85K8thCq4u-96" edge="1">
          <mxGeometry width="50" height="50" relative="1" as="geometry">
            <mxPoint x="625" y="833" as="sourcePoint" />
            <mxPoint x="988" y="1038" as="targetPoint" />
          </mxGeometry>
        </mxCell>
        <mxCell id="EzpZir944E85K8thCq4u-104" value="" style="endArrow=none;html=1;rounded=0;exitX=1;exitY=0.5;exitDx=0;exitDy=0;entryX=0.5;entryY=0.5;entryDx=0;entryDy=0;entryPerimeter=0;" parent="WIyWlLk6GJQsqaUBKTNV-1" source="EzpZir944E85K8thCq4u-98" target="EzpZir944E85K8thCq4u-10" edge="1">
          <mxGeometry width="50" height="50" relative="1" as="geometry">
            <mxPoint x="1480" y="1035" as="sourcePoint" />
            <mxPoint x="1840" y="1110" as="targetPoint" />
          </mxGeometry>
        </mxCell>
        <mxCell id="EzpZir944E85K8thCq4u-105" value="&lt;font style=&quot;font-size: 15px;&quot;&gt;&lt;b&gt;manage Grades&lt;/b&gt;&lt;/font&gt;" style="ellipse;whiteSpace=wrap;html=1;fillColor=default;" parent="WIyWlLk6GJQsqaUBKTNV-1" vertex="1">
          <mxGeometry x="970" y="1280" width="130" height="50" as="geometry" />
        </mxCell>
        <mxCell id="EzpZir944E85K8thCq4u-107" value="&lt;font style=&quot;font-size: 15px;&quot;&gt;&lt;b&gt;add Grades&lt;/b&gt;&lt;/font&gt;" style="ellipse;whiteSpace=wrap;html=1;fillColor=default;" parent="WIyWlLk6GJQsqaUBKTNV-1" vertex="1">
          <mxGeometry x="1210" y="1300" width="130" height="50" as="geometry" />
        </mxCell>
        <mxCell id="EzpZir944E85K8thCq4u-108" value="&lt;font style=&quot;font-size: 15px;&quot;&gt;&lt;b&gt;update Grades&lt;/b&gt;&lt;/font&gt;" style="ellipse;whiteSpace=wrap;html=1;fillColor=default;" parent="WIyWlLk6GJQsqaUBKTNV-1" vertex="1">
          <mxGeometry x="1180" y="1390" width="130" height="50" as="geometry" />
        </mxCell>
        <mxCell id="EzpZir944E85K8thCq4u-109" value="" style="endArrow=none;dashed=1;html=1;rounded=0;entryX=0;entryY=0.5;entryDx=0;entryDy=0;exitX=1;exitY=0.5;exitDx=0;exitDy=0;startArrow=open;startFill=0;strokeWidth=2;" parent="WIyWlLk6GJQsqaUBKTNV-1" source="EzpZir944E85K8thCq4u-105" target="EzpZir944E85K8thCq4u-107" edge="1">
          <mxGeometry width="50" height="50" relative="1" as="geometry">
            <mxPoint x="1145" y="1230" as="sourcePoint" />
            <mxPoint x="1209" y="1257" as="targetPoint" />
          </mxGeometry>
        </mxCell>
        <mxCell id="EzpZir944E85K8thCq4u-110" value="&amp;lt;&amp;lt;Extends&amp;gt;&amp;gt;" style="edgeLabel;html=1;align=center;verticalAlign=middle;resizable=0;points=[];" parent="EzpZir944E85K8thCq4u-109" vertex="1" connectable="0">
          <mxGeometry x="0.1275" relative="1" as="geometry">
            <mxPoint as="offset" />
          </mxGeometry>
        </mxCell>
        <mxCell id="EzpZir944E85K8thCq4u-111" value="" style="endArrow=none;dashed=1;html=1;rounded=0;entryX=0;entryY=0;entryDx=0;entryDy=0;exitX=1;exitY=1;exitDx=0;exitDy=0;startArrow=open;startFill=0;strokeWidth=2;" parent="WIyWlLk6GJQsqaUBKTNV-1" source="EzpZir944E85K8thCq4u-105" target="EzpZir944E85K8thCq4u-108" edge="1">
          <mxGeometry width="50" height="50" relative="1" as="geometry">
            <mxPoint x="1150" y="1365" as="sourcePoint" />
            <mxPoint x="1220" y="1335" as="targetPoint" />
          </mxGeometry>
        </mxCell>
        <mxCell id="EzpZir944E85K8thCq4u-112" value="&amp;lt;&amp;lt;Extends&amp;gt;&amp;gt;" style="edgeLabel;html=1;align=center;verticalAlign=middle;resizable=0;points=[];" parent="EzpZir944E85K8thCq4u-111" vertex="1" connectable="0">
          <mxGeometry x="0.1275" relative="1" as="geometry">
            <mxPoint as="offset" />
          </mxGeometry>
        </mxCell>
        <mxCell id="EzpZir944E85K8thCq4u-113" value="" style="endArrow=none;html=1;rounded=0;exitX=1;exitY=0.5;exitDx=0;exitDy=0;entryX=0.5;entryY=0.5;entryDx=0;entryDy=0;entryPerimeter=0;" parent="WIyWlLk6GJQsqaUBKTNV-1" source="EzpZir944E85K8thCq4u-107" target="EzpZir944E85K8thCq4u-10" edge="1">
          <mxGeometry width="50" height="50" relative="1" as="geometry">
            <mxPoint x="1440" y="1225" as="sourcePoint" />
            <mxPoint x="1975" y="1105" as="targetPoint" />
          </mxGeometry>
        </mxCell>
        <mxCell id="EzpZir944E85K8thCq4u-114" value="" style="endArrow=none;html=1;rounded=0;entryX=0;entryY=0;entryDx=0;entryDy=0;exitX=0.5;exitY=0.5;exitDx=0;exitDy=0;exitPerimeter=0;" parent="WIyWlLk6GJQsqaUBKTNV-1" source="EzpZir944E85K8thCq4u-3" target="EzpZir944E85K8thCq4u-105" edge="1">
          <mxGeometry width="50" height="50" relative="1" as="geometry">
            <mxPoint x="625" y="1180" as="sourcePoint" />
            <mxPoint x="1080" y="1205" as="targetPoint" />
          </mxGeometry>
        </mxCell>
        <mxCell id="EzpZir944E85K8thCq4u-115" value="&lt;font style=&quot;font-size: 15px;&quot;&gt;&lt;b&gt;manage Tasks&lt;/b&gt;&lt;/font&gt;" style="ellipse;whiteSpace=wrap;html=1;fillColor=default;" parent="WIyWlLk6GJQsqaUBKTNV-1" vertex="1">
          <mxGeometry x="840" y="1340" width="130" height="50" as="geometry" />
        </mxCell>
        <mxCell id="EzpZir944E85K8thCq4u-116" value="" style="endArrow=none;html=1;rounded=0;entryX=0;entryY=0;entryDx=0;entryDy=0;exitX=0.5;exitY=0.5;exitDx=0;exitDy=0;exitPerimeter=0;" parent="WIyWlLk6GJQsqaUBKTNV-1" source="EzpZir944E85K8thCq4u-3" target="EzpZir944E85K8thCq4u-115" edge="1">
          <mxGeometry width="50" height="50" relative="1" as="geometry">
            <mxPoint x="625" y="1180" as="sourcePoint" />
            <mxPoint x="1038" y="1348" as="targetPoint" />
          </mxGeometry>
        </mxCell>
        <mxCell id="EzpZir944E85K8thCq4u-117" value="&lt;font style=&quot;font-size: 15px;&quot;&gt;&lt;b&gt;add Tasks&lt;/b&gt;&lt;/font&gt;" style="ellipse;whiteSpace=wrap;html=1;fillColor=default;" parent="WIyWlLk6GJQsqaUBKTNV-1" vertex="1">
          <mxGeometry x="1060" y="1440" width="130" height="50" as="geometry" />
        </mxCell>
        <mxCell id="EzpZir944E85K8thCq4u-118" value="&lt;font style=&quot;font-size: 15px;&quot;&gt;&lt;b&gt;delete Tasks&lt;/b&gt;&lt;/font&gt;" style="ellipse;whiteSpace=wrap;html=1;fillColor=default;" parent="WIyWlLk6GJQsqaUBKTNV-1" vertex="1">
          <mxGeometry x="780" y="1470" width="130" height="50" as="geometry" />
        </mxCell>
        <mxCell id="EzpZir944E85K8thCq4u-119" value="&lt;font style=&quot;font-size: 15px;&quot;&gt;&lt;b&gt;update Tasks&lt;/b&gt;&lt;/font&gt;" style="ellipse;whiteSpace=wrap;html=1;fillColor=default;" parent="WIyWlLk6GJQsqaUBKTNV-1" vertex="1">
          <mxGeometry x="920" y="1470" width="130" height="50" as="geometry" />
        </mxCell>
        <mxCell id="EzpZir944E85K8thCq4u-120" value="" style="endArrow=none;dashed=1;html=1;rounded=0;entryX=0;entryY=0;entryDx=0;entryDy=0;exitX=1;exitY=1;exitDx=0;exitDy=0;startArrow=open;startFill=0;strokeWidth=2;" parent="WIyWlLk6GJQsqaUBKTNV-1" source="EzpZir944E85K8thCq4u-115" target="EzpZir944E85K8thCq4u-117" edge="1">
          <mxGeometry width="50" height="50" relative="1" as="geometry">
            <mxPoint x="1131" y="1383" as="sourcePoint" />
            <mxPoint x="1209" y="1407" as="targetPoint" />
          </mxGeometry>
        </mxCell>
        <mxCell id="EzpZir944E85K8thCq4u-121" value="&amp;lt;&amp;lt;Extends&amp;gt;&amp;gt;" style="edgeLabel;html=1;align=center;verticalAlign=middle;resizable=0;points=[];" parent="EzpZir944E85K8thCq4u-120" vertex="1" connectable="0">
          <mxGeometry x="0.1275" relative="1" as="geometry">
            <mxPoint as="offset" />
          </mxGeometry>
        </mxCell>
        <mxCell id="EzpZir944E85K8thCq4u-122" value="" style="endArrow=none;dashed=1;html=1;rounded=0;entryX=0.5;entryY=0;entryDx=0;entryDy=0;exitX=0.5;exitY=1;exitDx=0;exitDy=0;startArrow=open;startFill=0;strokeWidth=2;" parent="WIyWlLk6GJQsqaUBKTNV-1" source="EzpZir944E85K8thCq4u-115" target="EzpZir944E85K8thCq4u-119" edge="1">
          <mxGeometry width="50" height="50" relative="1" as="geometry">
            <mxPoint x="961" y="1393" as="sourcePoint" />
            <mxPoint x="1089" y="1457" as="targetPoint" />
          </mxGeometry>
        </mxCell>
        <mxCell id="EzpZir944E85K8thCq4u-123" value="&amp;lt;&amp;lt;Extends&amp;gt;&amp;gt;" style="edgeLabel;html=1;align=center;verticalAlign=middle;resizable=0;points=[];" parent="EzpZir944E85K8thCq4u-122" vertex="1" connectable="0">
          <mxGeometry x="0.1275" relative="1" as="geometry">
            <mxPoint as="offset" />
          </mxGeometry>
        </mxCell>
        <mxCell id="EzpZir944E85K8thCq4u-124" value="" style="endArrow=none;dashed=1;html=1;rounded=0;entryX=0.5;entryY=0;entryDx=0;entryDy=0;exitX=0;exitY=1;exitDx=0;exitDy=0;startArrow=open;startFill=0;strokeWidth=2;" parent="WIyWlLk6GJQsqaUBKTNV-1" source="EzpZir944E85K8thCq4u-115" target="EzpZir944E85K8thCq4u-118" edge="1">
          <mxGeometry width="50" height="50" relative="1" as="geometry">
            <mxPoint x="915" y="1400" as="sourcePoint" />
            <mxPoint x="995" y="1490" as="targetPoint" />
          </mxGeometry>
        </mxCell>
        <mxCell id="EzpZir944E85K8thCq4u-125" value="&amp;lt;&amp;lt;Extends&amp;gt;&amp;gt;" style="edgeLabel;html=1;align=center;verticalAlign=middle;resizable=0;points=[];" parent="EzpZir944E85K8thCq4u-124" vertex="1" connectable="0">
          <mxGeometry x="0.1275" relative="1" as="geometry">
            <mxPoint as="offset" />
          </mxGeometry>
        </mxCell>
        <mxCell id="EzpZir944E85K8thCq4u-126" value="" style="endArrow=none;dashed=1;html=1;rounded=0;entryX=1;entryY=0.5;entryDx=0;entryDy=0;startArrow=open;startFill=0;strokeWidth=2;exitX=0;exitY=0.5;exitDx=0;exitDy=0;" parent="WIyWlLk6GJQsqaUBKTNV-1" source="EzpZir944E85K8thCq4u-57" target="EzpZir944E85K8thCq4u-13" edge="1">
          <mxGeometry width="50" height="50" relative="1" as="geometry">
            <mxPoint x="1610" y="530" as="sourcePoint" />
            <mxPoint x="1672" y="422" as="targetPoint" />
          </mxGeometry>
        </mxCell>
        <mxCell id="EzpZir944E85K8thCq4u-127" value="&amp;lt;&amp;lt;Extends&amp;gt;&amp;gt;" style="edgeLabel;html=1;align=center;verticalAlign=middle;resizable=0;points=[];" parent="EzpZir944E85K8thCq4u-126" vertex="1" connectable="0">
          <mxGeometry x="0.1275" relative="1" as="geometry">
            <mxPoint as="offset" />
          </mxGeometry>
        </mxCell>
        <mxCell id="EzpZir944E85K8thCq4u-129" value="" style="endArrow=classic;html=1;rounded=0;" parent="WIyWlLk6GJQsqaUBKTNV-1" edge="1">
          <mxGeometry width="50" height="50" relative="1" as="geometry">
            <mxPoint x="600" y="580" as="sourcePoint" />
            <mxPoint x="600" y="760" as="targetPoint" />
          </mxGeometry>
        </mxCell>
        <mxCell id="EzpZir944E85K8thCq4u-130" value="" style="endArrow=classic;html=1;rounded=0;" parent="WIyWlLk6GJQsqaUBKTNV-1" edge="1">
          <mxGeometry width="50" height="50" relative="1" as="geometry">
            <mxPoint x="600" y="1110" as="sourcePoint" />
            <mxPoint x="600" y="950" as="targetPoint" />
          </mxGeometry>
        </mxCell>
        <mxCell id="o7aApu3GGf-8eQx43LeY-1" value="&lt;font style=&quot;font-size: 20px;&quot;&gt;&lt;span style=&quot;font-size: 20px;&quot;&gt;Gradepilot System&lt;/span&gt;&lt;/font&gt;" style="text;strokeColor=none;align=center;fillColor=none;html=1;verticalAlign=middle;whiteSpace=wrap;rounded=0;fontSize=20;fontStyle=1" parent="WIyWlLk6GJQsqaUBKTNV-1" vertex="1">
          <mxGeometry x="1310" y="290" width="215" height="30" as="geometry" />
        </mxCell>
      </root>
    </mxGraphModel>
  </diagram>
</mxfile>
